<svg width="5705" height="3375" viewBox="0 0 5705 3375" fill="none" xmlns="http://www.w3.org/2000/svg">
<g clip-path="url(#clip0_2438_46)">
<rect width="5705" height="3375" fill="#E9E9E9"/>
<path fill-rule="evenodd" clip-rule="evenodd" d="M383.823 5.29283C385.975 8.16627 389.32 12.7097 391.256 15.391C401.847 30.0577 424.181 54.6512 438.491 67.4055C489.349 112.736 560.632 143.394 644.18 155.868C680.597 161.306 722.664 162.614 749.338 159.137C778.529 155.333 785.393 154.3 798.199 151.777C822.203 147.049 847.903 139.752 866.202 132.471C870.341 130.823 874.141 129.975 874.645 130.585C875.149 131.195 877.897 137.722 880.753 145.089C887.222 161.786 905.017 197.049 915.813 214.568C951.612 272.66 995.747 316.181 1043.92 340.894C1077.65 358.196 1106.53 366.691 1149.08 371.821C1223.64 380.81 1242.41 383.475 1254.93 386.848C1293.53 397.242 1321.06 414.531 1344.94 443.381C1366.05 468.889 1376.96 493.862 1383.73 532.138C1386.76 549.327 1387.83 584.328 1385.86 601.78C1382.51 631.342 1382.5 635.475 1385.79 641.052C1391.45 650.635 1402.24 654.504 1413.78 651.079C1427.69 646.948 1431.95 636.198 1434.8 597.983C1438.75 544.951 1428.04 488.822 1406.27 448.567C1386.79 412.53 1347.49 375.469 1310.28 358.03C1282.55 345.032 1255.52 338.361 1208.97 333.015C1125.78 323.461 1111.35 320.543 1080.13 306.956C1034.7 287.18 993.929 249.111 959.351 194.17C944.806 171.059 923.759 127.139 918.616 109.169C917.889 106.63 919.498 104.808 928.604 97.8504C951.019 80.7281 967.844 60.4761 979.178 36.9801C984.501 25.9432 993.082 3.49605 993.082 0.607282C993.082 0.311998 981.742 0.0696424 967.881 0.0696424C942.913 0.0696424 942.672 0.0988921 941.879 3.20355C941.439 4.92651 937.986 12.4256 934.206 19.8662C929.054 30.0089 924.523 36.3979 916.104 45.3971C908.131 53.9186 904.573 56.8603 903.833 55.5399C901.84 51.9783 899.763 31.7973 899.763 15.9871V0.0696424H875.205H850.647L851.427 22.007C852.136 41.9359 853.779 54.8448 857.856 72.4978C860.324 83.1837 859.928 84.7562 854.148 87.2425C827.758 98.5942 788.988 108.134 749.338 113.032C729.051 115.54 682.933 115.212 662.983 112.418C590.941 102.331 531.142 80.2086 487.584 47.5296C479.319 41.3286 459.34 22.2925 446.822 8.69138L438.887 0.0696424H409.398H379.91L383.823 5.29283ZM1058.31 1.51403C1053.74 4.17855 1050.19 11.9548 1050.19 19.2937C1050.19 35.4759 1067.08 64.6226 1088.95 86.1602C1113.68 110.523 1146.26 127.01 1184.6 134.573C1202.72 138.148 1246.68 138.183 1263.99 134.638C1292.64 128.767 1317.84 118.368 1354.02 97.4827C1400.63 70.5826 1419.01 63.4415 1458.28 56.9731C1472.78 54.5858 1529.51 54.6011 1544.64 56.9954C1571.28 61.2115 1591.45 67.9627 1620.06 82.2394C1678.52 111.408 1733.52 162.428 1761.96 213.872C1783.06 252.035 1801.64 299.723 1804.39 322.793L1805.19 329.478L1784.52 339.571C1750.26 356.301 1725.29 374.256 1709.97 393.19C1703.08 401.707 1691.88 420.243 1688.72 428.371C1686.62 433.768 1686.01 438.798 1686.01 450.729C1686.01 465.712 1686.15 466.404 1691.24 476.698C1702.75 499.995 1724.13 512.638 1752 512.638C1774.94 512.638 1787.87 506.532 1807.88 486.249C1820.83 473.127 1833.26 456.257 1840.31 442.253C1849.37 424.241 1855.41 399.185 1857.47 371.028L1858.41 358.257L1867.62 355.374C1903.56 344.121 1929.38 339.912 1962.24 339.95C1991.23 339.983 2009.5 342.761 2034.55 350.949C2053.1 357.009 2071.52 366.198 2085.07 376.15C2099.8 386.961 2130.66 417.805 2153.34 444.388C2201.7 501.054 2218.23 518.442 2237.45 532.855C2279.19 564.143 2322.82 578.094 2378.94 578.094C2444.43 578.094 2492.19 557.913 2551.08 505.355C2573.28 485.544 2577.15 480.569 2577.82 470.951C2578.44 462.004 2575.23 455.832 2567.08 450.341C2561.76 446.753 2549.02 446.001 2543.79 448.964C2542.15 449.894 2534.18 456.813 2526.09 464.337C2482.37 504.956 2448.41 524.119 2409.58 530.088C2384.25 533.982 2348.63 532.262 2326.01 526.054C2312.74 522.412 2310.2 521.494 2298.98 516.312C2271.83 503.767 2249.84 484.313 2209.04 436.728C2173.12 394.829 2171.26 392.74 2154.7 375.708C2110.16 329.906 2074.95 310.817 2009.84 297.189C2000.27 295.186 1991.06 294.707 1961.79 294.685C1924.6 294.656 1924.86 294.631 1890.06 301.601C1879.94 303.627 1853.47 310.614 1852.57 311.493C1852.26 311.805 1850.51 306.307 1848.69 299.276C1833.67 241.31 1801.24 177.935 1766.56 138.779C1760.56 132.004 1754.51 124.983 1753.11 123.175C1748.3 116.955 1713.85 87.06 1699.24 76.4382C1663.54 50.4671 1623.63 30.2276 1586.42 19.2227C1537.49 4.74962 1467.78 4.89447 1412.96 19.5862C1392.87 24.9682 1369.74 34.6457 1350.34 45.7816C1346.51 47.9795 1336.56 53.711 1328.23 58.5178C1281.34 85.578 1254.6 93.293 1213.84 91.5213C1172.21 89.7106 1136.09 72.2123 1113.27 42.7981C1107.61 35.5065 1096.15 14.6514 1096.15 11.6456C1096.15 10.9896 1094.22 8.11752 1091.87 5.26218L1087.59 0.0696424L1074.11 0.111428C1066.7 0.135106 1059.59 0.766067 1058.31 1.51403ZM2029.5 7.3821C2039.05 19.0389 2063.99 44.2132 2074.61 52.9227C2125.8 94.9018 2194.42 122.04 2281.44 134.729C2303.81 137.991 2364.71 137.999 2387.59 134.744C2411.51 131.341 2425.13 128.843 2442.31 124.703C2457.29 121.098 2492.25 110.039 2497.42 107.272C2500.53 105.604 2501.11 106.579 2510.29 129.046C2529.77 176.736 2561.9 225.984 2596.84 261.711C2633.51 299.208 2664.13 318.929 2711.03 335.264C2731.64 342.443 2754.32 346.864 2791.91 351.03C2799.57 351.88 2812.42 353.444 2820.47 354.505C2828.51 355.568 2841.04 357.153 2848.32 358.028C2883.29 362.23 2914.01 372.834 2937.96 388.966C2950.14 397.169 2973.01 420.746 2982.25 434.639C3000.44 461.956 3009.43 491.275 3012.88 534.534C3014.5 554.918 3013.38 578.156 3009.73 599.793C3008.21 608.763 3008.32 609.902 3011.21 615.992C3016.8 627.792 3030.66 632.64 3042.46 626.928C3053.88 621.401 3057.49 610.934 3060.24 575.444C3062.66 544.21 3059.94 511.795 3052.2 479.42C3037.24 416.891 2993.04 362.088 2935.82 335.114C2904.38 320.293 2883.05 315.363 2818.38 307.974C2744.23 299.502 2730.59 296.297 2695.81 279.181C2643.24 253.317 2595.56 199.859 2561.17 128.212C2555.65 116.71 2543.29 86.2382 2543.29 84.1225C2543.29 83.3871 2547.52 79.6919 2552.7 75.9117C2564.88 67.0044 2581.25 50.6788 2590.35 38.373C2596.96 29.4156 2607.07 10.7486 2609.38 3.20355L2610.34 0.0696424L2584.82 0.136499L2559.31 0.203356L2554.44 7.91417C2551.75 12.1554 2545.17 20.0027 2539.81 25.3526L2530.06 35.0803L2528.46 29.5911C2527.58 26.5728 2526.41 18.6962 2525.86 12.0858L2524.86 0.0696424H2501.34H2477.83L2477.83 6.68568C2477.84 12.0565 2481.27 34.0552 2485.77 57.5316C2486.45 61.0625 2485.9 61.635 2478.91 64.7257C2449.19 77.87 2405.78 87.4542 2358.24 91.3667C2335.35 93.2512 2330.22 93.2485 2309.49 91.343C2272.49 87.9431 2248.44 83.5166 2216.68 74.2611C2192.02 67.0768 2184.95 64.3608 2160.33 52.6051C2133.65 39.8703 2114.21 26.9307 2095.29 9.33348L2085.34 0.0696424H2054.42H2023.51L2029.5 7.3821ZM2677.96 5.98925C2687.62 34.2557 2710.96 63.8189 2737.79 81.7658C2771.35 104.212 2807.68 114.882 2850.41 114.846C2886.71 114.815 2917.64 107.082 2952.09 89.4153C2966.07 82.2436 2970.06 80.0568 2985.51 71.1049C2990.11 68.4418 2996.38 64.8162 2999.44 63.0487C3016.21 53.3754 3041.16 43.0934 3057.24 39.231C3086.12 32.296 3120.35 29.6524 3149.87 32.0801C3187.77 35.1973 3209.05 41.0737 3243.19 57.8589C3297.95 84.7855 3347.57 127.618 3377.94 174.176C3393.68 198.311 3413.13 238.601 3421.65 264.711C3425.65 276.988 3431.88 300.702 3431.9 303.74C3431.91 305.081 3424.02 309.841 3410.38 316.716C3359.12 342.555 3332.15 367.272 3316.77 402.496C3312.55 412.18 3312.16 414.23 3312.15 427.41C3312.13 441.263 3312.32 442.172 3317.61 453.247C3330.65 480.579 3359.43 494.645 3390.54 488.894C3411.03 485.107 3428.32 472.683 3446.68 448.567C3470.72 416.983 3479.22 393.171 3483.2 346.237L3484.14 335.138L3499.47 330.519C3533.32 320.313 3552.15 317.486 3587.21 317.348C3624.77 317.199 3641.82 320.203 3672.4 332.364C3699.88 343.287 3717.5 355.28 3741.76 379.561C3754.59 392.398 3763.31 402.12 3790.57 433.964C3837.4 488.689 3854.62 505.418 3881.1 521.921C3907.68 538.484 3935.09 548.281 3968.15 553.033C3985.05 555.463 4039.17 554.173 4053.11 551.008C4100.12 540.339 4140.71 516.755 4185.37 474.168C4201.81 458.492 4204.05 454.815 4203.24 444.943C4202.86 440.404 4201.49 435.779 4199.85 433.537C4196.33 428.691 4186.16 423.496 4180.21 423.496C4174.54 423.496 4166.43 427.492 4161.75 432.588C4158.65 435.963 4142.64 450.518 4129.75 461.668C4120.44 469.727 4100.34 483.17 4088.35 489.364C4062.65 502.633 4047.69 506.788 4019.96 508.362C3963.72 511.552 3925.09 500.19 3886.44 469.091C3880.76 464.523 3869.04 452.865 3860.4 443.185C3845.3 426.269 3838.53 418.49 3812.36 387.978C3769.2 337.647 3740.23 312.937 3704.61 296.064C3680.09 284.446 3653.1 276.733 3621.46 272.298C3602.82 269.685 3565.86 270.046 3547.52 273.018C3524.9 276.687 3519.37 277.766 3504.34 281.459C3495.53 283.623 3486.56 286.068 3484.4 286.892C3478.88 289.004 3476.48 288.756 3476.48 286.074C3476.48 281.289 3463.92 241.484 3457.48 225.88C3446.57 199.427 3429.29 166.659 3414.8 144.961C3399.48 122.015 3370.3 90.2914 3346.26 70.4461C3312.06 42.2186 3286.04 26.3026 3241.03 6.06446L3229.26 0.770246L3127.97 0.384426L3026.68 0L3013.87 4.9474C2999.44 10.5188 2987.61 16.6 2958.35 33.4827C2924.13 53.2291 2903.44 62.0932 2881.75 66.2954C2867.55 69.0449 2830.84 68.9906 2817.42 66.2007C2797.29 62.0138 2778.15 54.0537 2764.1 44.0266C2752.73 35.9146 2737.27 19.2826 2731.32 8.77216L2726.45 0.151821L2701.19 0.111428L2675.94 0.0696424L2677.96 5.98925ZM3670.09 1.36081C3670.09 3.37348 3697.99 28.8292 3710.07 37.8284C3772.77 84.5599 3870.98 114.856 3959.79 114.859C3973.97 114.86 3991.52 114.092 3998.79 113.155C4028.92 109.272 4035.18 108.276 4053.81 104.411C4078.01 99.3909 4084.18 97.6972 4104.48 90.5101C4128.25 82.0973 4125.78 81.7992 4130.34 93.6273C4136.98 110.871 4153.94 145.157 4165.14 163.961C4217.65 252.156 4287.01 305.177 4370.56 320.996C4380.2 322.821 4394.35 325.049 4402.01 325.948C4409.68 326.846 4422.52 328.425 4430.57 329.455C4438.61 330.485 4451.77 332.054 4459.82 332.94C4501.57 337.539 4526.7 344.741 4552.71 359.568C4579.14 374.628 4603.64 400.667 4617.7 428.656C4633.65 460.371 4641.7 507.791 4638.28 549.801C4637.4 560.566 4635.98 572.902 4635.11 577.215C4632.05 592.478 4640.58 604.431 4655.42 605.661C4675.48 607.325 4682.25 595.124 4685.56 551.377C4690.65 484.064 4672.07 416.178 4636.66 372.657C4609.36 339.103 4570.77 312.291 4533.64 301.081C4504.82 292.381 4499.01 291.399 4425 282.73C4381.7 277.659 4361.25 273.315 4339.41 264.555C4308.25 252.057 4286.13 237.215 4259.94 211.213C4238.17 189.597 4223.48 170.416 4203 136.879C4192.95 120.409 4168.72 67.2662 4168.72 61.6907C4168.72 60.8759 4174.34 55.7237 4181.21 50.2428C4188.09 44.762 4197.57 36.0873 4202.28 30.9672C4210.88 21.6309 4224.43 3.44312 4224.43 1.24381C4224.43 0.597532 4211.76 0.0696424 4196.27 0.0696424H4168.12L4161.53 6.55893L4154.94 13.0482L4153.31 6.55893L4151.67 0.0696424H4128.39H4105.11L4106.14 7.3821C4106.71 11.4046 4108.17 19.3954 4109.39 25.1409C4112.33 38.9886 4112.38 38.7031 4106.39 41.259C4101.36 43.404 4081.95 50.2359 4073.31 52.9046C4058.03 57.6222 4024.99 64.0488 4000.19 67.127C3982.31 69.3458 3937.38 69.3179 3919.4 67.0768C3852.86 58.7838 3794.78 39.0847 3750.34 9.73462L3735.7 0.0696424H3702.89C3683.68 0.0696424 3670.09 0.604496 3670.09 1.36081ZM4314.48 6.68568C4338.43 48.2121 4378.93 75.7487 4434.05 87.9723C4453.96 92.3877 4495.57 92.4016 4516.78 88.0002C4543.57 82.4372 4567.74 72.6858 4597.94 55.2446C4621.92 41.4052 4626.11 39.0806 4638.1 32.9785C4659.41 22.1338 4682.44 14.9425 4708.44 11.016C4727.02 8.20945 4782.42 8.59388 4800.36 11.654C4841.1 18.6029 4883.65 38.3981 4926.41 70.2901C4949.63 87.6088 4982.64 121.293 4999.18 144.544C5015.01 166.803 5035.99 209.04 5046.42 239.64C5050.53 251.721 5057.43 278.573 5057.23 281.754C5057.17 282.722 5047.3 288.352 5035.29 294.263C4993.69 314.752 4970.55 333.032 4953.49 358.886C4941.13 377.625 4938.42 385.153 4937.81 402.476C4937.34 415.582 4937.65 417.884 4941 426.439C4943.69 433.296 4947.14 438.526 4953.52 445.415C4968.49 461.578 4983 467.347 5006.33 466.412C5019.38 465.888 5021.33 465.419 5032.6 460.093C5043 455.173 5046.65 452.428 5057.73 441.184C5071.08 427.637 5083 411.258 5090.65 395.949C5100.87 375.512 5107.48 347.218 5107.48 323.922C5107.48 317.402 5107.8 312.068 5108.19 312.068C5108.58 312.068 5116.06 309.899 5124.8 307.249C5161.96 295.985 5204.13 290.846 5233.98 293.945C5272.32 297.926 5303.86 308.524 5331.78 326.804C5347.87 337.344 5371.34 359.466 5393.01 384.517C5414.01 408.798 5428.93 425.964 5440.2 438.817C5472.34 475.457 5493.99 493.523 5523.7 508.478C5537.6 515.477 5561.91 524.181 5574.77 526.763C5615.66 534.979 5660.85 533.563 5697.69 522.912L5705 520.797V495.789V470.782L5700.93 472.886C5684.7 481.281 5658.29 486.174 5629.22 486.174C5577.7 486.174 5538.58 471.273 5503.58 438.324C5490.57 426.079 5482.03 416.552 5432.74 359.315C5374.07 291.182 5334.8 266.448 5261.39 251.383C5246.89 248.409 5203.62 247.192 5182.69 249.168C5160.25 251.289 5127.39 258.11 5105.04 265.285C5102.61 266.065 5101.91 265.75 5101.91 263.882C5101.91 261.42 5100.39 255.95 5093.27 232.675C5081.18 193.197 5054.16 139.594 5031.39 109.931C5017.16 91.3848 4994.23 67.2635 4972.38 47.8346C4958.69 35.6736 4922.6 10.8336 4907.32 3.05312L4901.45 0.0696424L4751.32 0.0752138L4601.19 0.0807852L4584.47 9.95887C4553.71 28.1397 4538.11 35.2878 4515.73 41.4512C4503.44 44.8372 4500.05 45.1576 4475.83 45.2216C4448.73 45.2941 4443.9 44.6338 4423.11 38.0178C4406.13 32.615 4383.04 17.9664 4370.07 4.35962L4365.98 0.0696424H4338.32H4310.67L4314.48 6.68568ZM0 82.8313C0 106.698 0.185245 108.582 2.60179 109.35C7.2775 110.835 35.8429 129.157 49.1917 139.235C75.3308 158.969 110.221 195.052 124.444 217.062C147.902 253.362 168.901 300.121 176.805 333.657C177.707 337.487 179.079 343.032 179.852 345.98C180.627 348.927 181.06 351.52 180.815 351.743C180.571 351.965 170.342 357.164 158.085 363.298C121.472 381.618 101.338 396.041 86.3313 414.694C70.0283 434.962 61.9137 451.673 60.4151 468.067C57.6364 498.48 77.7738 526.029 108.823 534.293C137.654 541.967 167.238 529.135 191.858 498.276C218.617 464.738 227.93 438.394 231.571 385.94C231.898 381.219 232.129 381.046 242.351 377.883C256.058 373.64 279.098 368.119 293.885 365.535C310.801 362.579 360.329 362.545 376.062 365.478C405.976 371.055 434.093 381.671 453.295 394.641C476.773 410.499 494.857 428.489 536.907 477.817C589.233 539.202 615.881 563.008 650.511 579.31C672.48 589.651 687.955 594.475 711.732 598.39C728.109 601.085 778.209 601.012 793.909 598.266C810.744 595.325 835.473 587.286 851.711 579.481C879.202 566.264 914.845 539.577 940.503 512.997L951.298 501.816V492.66C951.298 483.986 951.025 483.218 946.075 478.02C939.748 471.376 931.847 468.809 923.502 470.684C919.147 471.662 914.658 474.875 904.482 484.292C884.762 502.544 875.358 510.414 861.795 520.017C838.965 536.181 821.689 544.343 795.973 551.118C783.049 554.524 780.011 554.779 752.82 554.748C728.053 554.72 721.572 554.261 710.529 551.745C665.488 541.488 637.896 523.298 598.394 477.817C591.408 469.773 584.048 461.312 582.04 459.013C580.03 456.715 569.748 444.806 559.19 432.549C515.972 382.377 488.645 359.256 452.148 341.983C415.691 324.73 380.13 317.01 337.063 316.997C301.73 316.987 273.397 321.16 237.81 331.615C231.866 333.362 226.653 334.441 226.225 334.014C225.797 333.586 222.714 323.928 219.372 312.554C210.354 281.847 204.014 265.829 189.963 238.247C179.49 217.688 177.033 213.259 167.919 198.528C150.677 170.66 116.422 133.595 84.2657 108.011C63.269 91.3054 24.139 67.1994 5.22308 59.3159L0 57.1388V82.8313ZM5046.2 340.028C5016.67 355.679 5001.76 368.319 4990.37 387.362C4985.76 395.077 4984.91 397.707 4984.91 404.281C4984.91 411.4 4985.32 412.421 4989.68 416.254C4999.14 424.556 5009.73 423.163 5021.93 412.016C5036.59 398.612 5048.48 379.447 5055.06 358.604C5058.16 348.772 5061.16 332.917 5059.91 332.987C5059.64 333.002 5053.47 336.17 5046.2 340.028ZM3419.29 364.002C3388.78 380.631 3375.89 392.094 3363.21 413.868C3358.86 421.327 3358.15 432.105 3361.66 437.122C3369.94 448.946 3388.45 445.597 3401.76 429.871C3417.65 411.081 3426.36 395.64 3430.89 378.228C3433.75 367.232 3435.16 356.626 3433.74 356.689C3433.12 356.716 3426.62 360.007 3419.29 364.002ZM1791.89 388.141C1761.7 405.149 1747.97 417.864 1735.86 440.02C1734.87 441.833 1734.06 446.572 1734.06 450.555C1734.06 456.654 1734.67 458.381 1737.93 461.504C1750.65 473.684 1764.57 467.613 1785.16 440.906C1790.81 433.58 1798.83 418.81 1801.43 410.96C1806.81 394.729 1809.35 380.317 1806.83 380.317C1806.25 380.317 1799.53 383.839 1791.89 388.141ZM168.529 409.301C137.979 426.453 127.654 434.925 116.044 452.374C107.063 465.872 105.193 473.785 109.217 481.257C114.026 490.188 125.874 492.986 136.317 487.659C147.81 481.795 167.898 455.629 174.599 437.792C180.95 420.886 184.503 402.553 181.415 402.628C180.841 402.642 175.042 405.645 168.529 409.301ZM3636.37 436.015C3624.77 439.512 3619.91 448.595 3616.45 473.278C3605.94 548.156 3638.66 631.586 3705.55 700.489C3730.92 726.613 3754.73 744.262 3787.08 760.905C3818.23 776.926 3843.89 786.382 3884.64 796.843C3907.85 802.802 3939.34 807.447 3969.54 809.366C4020.26 812.588 4085.26 803.468 4134.59 786.206C4144.55 782.721 4153.85 779.757 4155.25 779.619C4157.23 779.424 4159.02 782.259 4163.19 792.248C4177.51 826.478 4194.19 857.255 4214.08 886.107C4219.7 894.254 4224.01 901.197 4223.67 901.538C4222.57 902.637 4248.66 932.244 4260.61 943.463C4294.59 975.361 4330.11 996.083 4374.18 1009.73C4392.62 1015.44 4413.73 1019.11 4454.94 1023.8C4469.94 1025.5 4494.12 1028.53 4512.05 1030.95C4559.14 1037.3 4598.87 1058.68 4626.36 1092.47C4650.67 1122.33 4662.81 1154.63 4667.28 1201.3C4669.39 1223.24 4669.1 1236.22 4665.96 1260.53L4663.19 1282.05L4666.1 1288.06C4671.94 1300.12 4688.67 1304.84 4701 1297.91C4713.57 1290.85 4716.79 1275.92 4716.73 1225.08C4716.68 1187.27 4715.97 1180.76 4708.9 1152.65C4707.36 1146.52 4705.63 1139.63 4705.05 1137.33C4702.82 1128.48 4693.24 1106.2 4687.1 1095.62C4665.35 1058.09 4633.69 1027.94 4596.35 1009.19C4565.93 993.919 4541.62 987.91 4481.41 980.773C4414.6 972.855 4403.37 970.986 4383.21 964.421C4367.47 959.297 4335.23 942.872 4322.3 933.391C4300.81 917.634 4275.13 891.061 4255.57 864.332C4237.59 839.772 4215.96 799.495 4205.12 770.415L4199.71 755.891L4211.03 746.94C4239.26 724.613 4257.11 700.352 4268.84 668.405C4282.55 631.071 4279.78 604.223 4260 582.551C4251.87 573.639 4246.63 570.147 4233.65 564.972C4224.9 561.488 4222.75 561.193 4209.19 561.618C4195.26 562.055 4193.65 562.414 4183.71 567.332C4161.5 578.319 4146.67 600.298 4136.51 637.298C4133.11 649.668 4134.12 682.485 4138.68 707.637C4140.83 719.511 4142.67 730.37 4142.77 731.767C4142.96 734.419 4137 737.366 4118.48 743.774C4107.44 747.594 4080.02 754.76 4069.83 756.49C4031.43 763.005 4022.73 763.826 3991.83 763.848C3954.95 763.873 3931.56 760.976 3892.47 751.541C3833.6 737.332 3785.62 712.958 3749.88 679.116C3730.66 660.907 3716.8 644.528 3703.13 623.868C3684.64 595.905 3673.63 571.908 3666.48 543.977C3662.89 529.958 3662.55 526.465 3662.49 502.888C3662.44 482.546 3662.96 474.871 3664.98 466.439C3667.48 455.96 3667.48 455.638 3664.81 449.595C3659.9 438.513 3647.59 432.633 3636.37 436.015ZM2007.75 459.938C1997.75 465.458 1994.44 472.817 1991 497.211C1986.25 530.851 1990.46 566.876 2003.59 604.924C2012.64 631.154 2034.64 669.391 2057.03 697.796C2071.03 715.551 2101.59 745.385 2117.35 756.676C2163.51 789.754 2215.55 811.555 2277.26 823.663C2324.65 832.961 2361.65 835.389 2399.83 831.708C2444.16 827.436 2475.24 821.114 2508.47 809.613C2534.89 800.47 2531.82 799.701 2538.94 817.264C2552.62 851.042 2577.87 896.465 2595.1 918.28C2597.35 921.14 2598.84 924.063 2598.4 924.778C2597.96 925.492 2598.07 926.286 2598.65 926.544C2599.23 926.8 2602.17 930.145 2605.19 933.975C2613.53 944.567 2641.64 972.922 2652.86 982.077C2669.45 995.607 2687.24 1006.85 2707.15 1016.37C2740.02 1032.1 2765.74 1039.1 2810.72 1044.55C2850.63 1049.38 2860.37 1050.6 2874.79 1052.53C2916.86 1058.17 2941.14 1066.44 2967.22 1084C2987.38 1097.58 3013.74 1128.82 3023.84 1151.09C3040.43 1187.68 3046.72 1236.74 3040.69 1282.53C3038.07 1302.38 3037.94 1305.74 3039.64 1309.8C3044.76 1322.05 3061.94 1328.04 3074.52 1321.95C3077.91 1320.31 3081.73 1317.37 3083 1315.44C3090.22 1304.42 3094.69 1261.59 3092.08 1228.47C3088.43 1182.2 3077.31 1143.25 3059.48 1114.35C3039.31 1081.63 3008.18 1051.75 2976.68 1034.89C2947.8 1019.42 2917.63 1010.98 2872.7 1005.8C2865.8 1005.01 2852.64 1003.43 2843.45 1002.28C2834.25 1001.14 2820.78 999.506 2813.5 998.646C2762.09 992.58 2723.31 977.485 2688.84 950.122C2653.97 922.439 2620.61 879.166 2595.85 829.511C2588.04 813.844 2575.33 783.01 2575.33 779.731C2575.33 778.728 2579.23 775.102 2584 771.675C2621.15 744.954 2649.52 696.416 2651.55 656.101C2652.44 638.386 2650.28 628.511 2642.77 615.897C2629.56 593.717 2602.25 580.736 2577.02 584.641C2563.07 586.8 2549.88 593.568 2539.59 603.84C2532.73 610.693 2529.45 615.643 2523.16 628.623C2512.99 649.623 2508.47 667.081 2508.47 685.392C2508.47 698.682 2511.99 726.4 2516.15 745.94C2517.29 751.301 2518.22 756.101 2518.22 756.604C2518.22 757.107 2515.56 758.459 2512.3 759.61C2509.05 760.76 2502 763.351 2496.63 765.366C2467.53 776.307 2418.85 785.237 2374.07 787.848C2336.3 790.052 2268.17 777.908 2221.9 760.725C2169.19 741.147 2129.8 713.341 2096.39 672.119C2066.8 635.602 2048.71 599.686 2039.58 559.298C2036.01 543.472 2036.03 508.246 2039.62 491.049L2042.25 478.513L2039.1 471.854C2035.02 463.203 2027.12 458.299 2017.38 458.359C2013.62 458.382 2009.29 459.093 2007.75 459.938ZM383.723 482.203C376.81 484.73 370.57 491.726 368.397 499.385C367.308 503.227 365.373 513.578 364.098 522.388C356.525 574.678 374.009 638.276 411.25 693.913C426.726 717.032 437.455 730.065 458.211 750.96C513.858 806.979 590.516 840.161 696.411 854.063C713.192 856.266 764.992 856.272 784.159 854.074C808.336 851.3 836.684 846.079 857.862 840.499C869.994 837.303 901.148 827.06 903.889 825.365C905.557 824.334 907.408 827.203 910.606 835.779C921.584 865.224 944.094 906.959 963.348 933.571C968.212 940.293 972.19 946.473 972.19 947.306C972.19 949.94 988.95 969.669 1003.46 984.12C1031.68 1012.22 1061.57 1032.29 1096.15 1046.37C1127.14 1058.98 1149.21 1063.83 1202.7 1069.77C1267.88 1077 1287.17 1080.71 1310.38 1090.48C1353.86 1108.77 1388.59 1145.9 1403.7 1190.26C1414.21 1221.09 1419.04 1265.96 1415.16 1296.81C1414.24 1304.09 1413.15 1314.89 1412.73 1320.82C1412.01 1330.96 1412.19 1331.89 1415.72 1336.52C1420.74 1343.1 1425.2 1345.83 1432.99 1347.09C1444.18 1348.89 1454.5 1344.47 1458.89 1335.99C1461.93 1330.11 1464.92 1313.21 1466.66 1292.1C1469.71 1254.96 1463.74 1209.52 1451.08 1173.54C1432.05 1119.46 1386.45 1071.49 1332.98 1049.29C1304.61 1037.51 1281.15 1032.39 1229.17 1026.62C1170.96 1020.17 1152.75 1017.1 1132.36 1010.31C1119.89 1006.15 1100.04 997.177 1088.49 990.467C1037.49 960.843 988.719 899.123 958.556 826.029C948.084 800.653 948.087 802.494 958.5 794.647C986.106 773.846 1005.48 748.073 1018 715.48C1024.83 697.71 1026.99 685.545 1026.17 669.452C1025.26 651.523 1020.64 640.465 1008.98 628.24C994.797 613.368 980.778 607.352 960.308 607.352C940.585 607.352 927.934 612.625 913.521 626.853C905.903 634.373 902.949 638.742 896.551 651.949C885.081 675.628 883.049 684.472 883.049 710.705C883.049 731.574 883.584 736.284 889.474 767.322C890.689 773.719 891.15 779.438 890.5 780.03C886.82 783.383 851.442 795.051 831.515 799.486C795.683 807.458 774.898 809.795 739.589 809.825C709.126 809.85 700.737 809.109 669.251 803.621C638.956 798.339 601.116 786.845 575.236 775.063C540.327 759.171 518.596 744.378 493.636 719.518C452.237 678.284 425.587 632.495 414.163 582.977C410.534 567.247 410.548 530.646 414.189 513.917C416.769 502.064 416.767 501.909 413.959 495.563C409.097 484.569 394.68 478.2 383.723 482.203ZM4199.4 611.879C4194.18 616.936 4186.22 632.986 4183.22 644.499C4180.64 654.415 4180.73 671.232 4183.47 690.978C4184.68 699.758 4185.9 707.161 4186.16 707.429C4187.2 708.489 4201.18 694.161 4207.58 685.479C4220.73 667.643 4230 644.08 4230 628.498C4230 614.072 4223.93 607.352 4210.9 607.352C4205.08 607.352 4203.38 608.022 4199.4 611.879ZM2576.18 633.284C2572.06 636.085 2569.52 639.69 2565.23 648.853C2558.41 663.401 2555.94 673.231 2555.88 686.103C2555.82 697.015 2559.64 727.219 2561.28 728.929C2562.6 730.297 2580.88 711.212 2585.97 703.152C2601.87 677.989 2608.69 649.857 2601.66 638.474C2595.93 629.2 2585.36 627.047 2576.18 633.284ZM4342.41 650.655C4331.91 659.316 4330.7 667.134 4337.33 683.679C4362.22 745.858 4428.94 786.755 4505.87 786.985C4519.79 787.027 4545.25 784.313 4555.92 781.649C4581.79 775.192 4603.99 765.287 4643.48 742.574C4680 721.571 4691.94 716.53 4721.51 709.641C4758.8 700.954 4815.97 701.56 4851.3 711.017C4891.97 721.904 4937.92 747.201 4974.4 778.782C4999.27 800.324 5019.44 822.649 5033.93 844.686C5043.72 859.57 5057.62 885.164 5058.13 889.25C5058.34 890.868 5061.44 899.084 5065.03 907.511C5074.85 930.546 5086.59 967.74 5086.59 975.824C5086.59 976.953 5079.97 981.105 5071.21 985.478C5023.26 1009.4 5001.16 1026.2 4983.85 1051.88C4969.99 1072.45 4966.85 1081.13 4966.82 1099.05C4966.79 1119.69 4971.64 1130.61 4987.16 1144.83C4993.05 1150.23 4999.44 1154.48 5005.53 1157.05C5014.15 1160.69 5016.23 1160.99 5032.96 1161C5047.56 1161.01 5052.42 1160.49 5058.03 1158.31C5074.26 1152.03 5089.62 1138.99 5105.18 1118.27C5124.37 1092.72 5134.68 1066.41 5138.09 1034.26C5138.98 1025.83 5140.01 1016.33 5140.38 1013.15L5141.04 1007.35L5151.77 1003.87C5163.37 1000.1 5180.33 995.84 5198.44 992.154C5215.17 988.747 5272.22 988.746 5287.85 992.151C5325.42 1000.34 5353.51 1013.43 5377.69 1034.01C5394.31 1048.16 5415.4 1070.31 5437.1 1096.41C5454.51 1117.34 5489.2 1155.98 5497.62 1163.81C5536.28 1199.77 5572.54 1217.29 5624.34 1225.03C5641.31 1227.57 5677.19 1227.85 5693.51 1225.57L5705 1223.96V1200.31V1176.66L5700.47 1177.48C5697.98 1177.93 5692.19 1178.94 5687.59 1179.74C5682.99 1180.54 5669.83 1181.19 5658.34 1181.19C5627.11 1181.2 5602.21 1175.77 5577.83 1163.65C5554.97 1152.29 5536.26 1137.19 5515.03 1112.98C5507.29 1104.16 5500.64 1096.62 5500.26 1096.24C5499.87 1095.86 5492.05 1086.77 5482.88 1076.05C5420.15 1002.68 5393.23 980.227 5345.14 961.195C5301.43 943.891 5246.3 938.173 5196.62 945.789C5180.4 948.275 5150.02 955.026 5136.5 959.149C5134.66 959.708 5133.71 958.159 5131.97 951.791C5121.04 911.706 5109.34 883.132 5087.85 844.046C5070.8 813.018 5052.18 788.872 5025.02 762.543C4994.57 733.04 4964.66 711.463 4928.63 693.03C4885.94 671.186 4860.99 663.5 4819.86 659.522C4776.67 655.347 4736.59 658.336 4697.29 668.668C4671.38 675.48 4654.19 683.034 4623.5 701.089C4570.46 732.296 4544.88 741.064 4506.89 741.065C4480.01 741.065 4462.89 737.451 4440.82 727.11C4424.5 719.459 4415.17 712.848 4403.25 700.462C4393.41 690.237 4387.82 682.198 4383.09 671.448C4373.49 649.641 4369.96 646.352 4356.16 646.352C4348.69 646.352 4346.99 646.882 4342.41 650.655ZM950.697 656.276C940.212 664.523 930.405 690.271 930.405 709.552C930.405 719.788 933.914 748.605 935.467 751.116C936.467 752.735 947.842 741.844 955.557 731.881C966.443 717.821 979.162 686.01 979.148 672.876C979.143 667.562 975.214 660.006 970.339 655.934C965.975 652.289 955.533 652.47 950.697 656.276ZM2719.24 672.15C2704.22 681.155 2704.05 693.877 2718.61 720.859C2740.5 761.444 2778.62 790.322 2827.43 803.278C2856.76 811.066 2895.53 812.064 2925.62 805.809C2950.5 800.636 2980.87 787.772 3012.67 768.931C3053.17 744.939 3072.47 737.172 3108.7 730.286C3124.44 727.293 3188.71 726.921 3206.28 729.72C3243.84 735.706 3290.85 757.217 3329.54 786.125C3353.8 804.252 3382.77 832.705 3400.24 855.576C3411.69 870.557 3432.03 906.052 3432.76 912.319C3432.99 914.309 3435.3 920.622 3437.89 926.349C3447.37 947.277 3461.08 990.009 3461.15 998.812C3461.16 1000.15 3456.79 1003.06 3449.67 1006.47C3416.05 1022.57 3390.92 1038.64 3375.97 1053.58C3363.86 1065.7 3348.11 1089.26 3344.13 1101.24C3339.71 1114.5 3340.53 1135.39 3345.9 1146.87C3353.91 1163.98 3367.37 1175.59 3386.63 1181.98C3396.5 1185.26 3399.33 1185.6 3411.7 1185.04C3426.82 1184.35 3434.78 1181.81 3447.93 1173.49C3461.36 1164.98 3480.57 1143.15 3491.98 1123.4C3506.49 1098.3 3511.79 1079.06 3514.84 1040.44L3515.67 1029.91L3522.19 1028.1C3525.78 1027.1 3534.04 1024.78 3540.55 1022.95C3605.1 1004.79 3665.2 1008.41 3716.36 1033.54C3746.33 1048.26 3765.49 1065.91 3820.01 1128.97C3878.91 1197.1 3897.59 1213.2 3938.9 1231.41C3962.68 1241.89 3983.13 1246.81 4013.73 1249.4C4032.93 1251.03 4068.81 1249.39 4083.75 1246.2C4133.3 1235.63 4176.7 1209.73 4223.24 1162.93C4234.75 1151.37 4236.48 1147.58 4234.95 1137.35C4233.18 1125.51 4220.28 1117.19 4206.59 1119.07C4199.12 1120.09 4199.2 1120.04 4178.59 1139.02C4143.04 1171.77 4115.32 1188.84 4081.67 1198.71C4067.93 1202.74 4067.26 1202.79 4033.61 1202.79C4000.63 1202.79 3999.03 1202.66 3985.56 1198.93C3962.73 1192.62 3943.4 1183.48 3926.37 1170.96C3915.22 1162.77 3893.35 1140.53 3871.39 1115.05C3819.28 1054.59 3804.39 1038.75 3782.77 1020.8C3740.19 985.443 3680.01 965.294 3617.16 965.354C3588.52 965.382 3564.29 968.658 3532.2 976.841C3506.7 983.344 3509.14 983.602 3506.62 974.157C3503.07 960.936 3493.41 932.146 3487.99 918.654C3482.45 904.86 3466.01 872.077 3456.73 856.304C3425.01 802.395 3364.7 747.078 3303.91 716.131C3265.34 696.5 3239.58 688.098 3203.03 683.237C3178.1 679.921 3125.14 680.933 3101.43 685.181C3060.74 692.467 3037.44 701.195 2998.75 723.631C2967.99 741.466 2947.18 751.838 2932.59 756.605C2915.81 762.086 2906.25 763.351 2881.6 763.351C2859.52 763.351 2854.87 762.936 2842.39 759.846C2814.1 752.847 2785.8 735.413 2770.52 715.572C2764.74 708.058 2753.61 687.714 2753.61 684.651C2753.61 683.853 2751.62 680.786 2749.19 677.836C2741.21 668.158 2729.58 665.95 2719.24 672.15ZM1092.51 694.969C1078.62 703.444 1078.3 717.562 1091.46 742.515C1121.17 798.864 1183.09 832.993 1255.61 832.993C1270.48 832.993 1295.2 830.35 1307.35 827.458C1328.19 822.5 1362.89 806.607 1395.56 787.059C1432.25 765.102 1462.66 754.824 1502.65 750.854C1531.19 748.023 1571.09 749.901 1592.91 755.104C1628.13 763.501 1668.25 783.303 1704.56 810.204C1725.75 825.906 1762.04 862.179 1775.43 881.047C1786.57 896.748 1804.79 927.995 1805.88 933.278C1806.28 935.194 1809.75 944.595 1813.6 954.171C1824.82 982.091 1832.31 1005.87 1833.57 1017.55L1834.31 1024.51L1811.84 1035.64C1769.05 1056.85 1748.07 1073.63 1729.94 1101.13C1717.78 1119.57 1715.25 1127.39 1715.28 1146.38C1715.31 1160.4 1715.53 1161.45 1720.48 1171.64C1726.98 1185 1737.46 1195.01 1752.17 1201.89C1761.91 1206.46 1763.74 1206.83 1779.33 1207.37C1798.88 1208.06 1807.6 1205.84 1822.62 1196.35C1839.72 1185.55 1861.69 1158.37 1873.25 1133.69C1882.64 1113.66 1886.56 1096.47 1889.47 1062.52L1890.27 1053.17L1901.66 1049.74C1907.92 1047.86 1915.7 1045.64 1918.96 1044.82C1922.22 1043.99 1927.3 1042.69 1930.26 1041.92C1948.51 1037.2 1961.43 1035.93 1992.43 1035.79C2028.06 1035.64 2032.65 1036.24 2061.38 1044.85C2070.61 1047.62 2093.35 1057.52 2100.88 1062.06C2124.72 1076.42 2144.72 1095.36 2183.25 1140.1C2237.57 1203.17 2243.79 1209.71 2266.12 1227.3C2305.48 1258.29 2352.48 1273.17 2410.87 1273.11C2462.14 1273.06 2497.94 1262.14 2541.2 1233.36C2571.36 1213.31 2607.65 1179.45 2609.49 1169.67C2610.85 1162.41 2609.26 1155.55 2605.05 1150.55C2599.65 1144.13 2594.77 1142.21 2583.89 1142.21H2574.2L2555.61 1159.06C2523.7 1187.99 2493.06 1208.84 2470.85 1216.75C2451.09 1223.78 2438.35 1226.03 2414.03 1226.78C2376.61 1227.94 2349.33 1222.15 2321.86 1207.22C2294.33 1192.27 2279.13 1177.34 2216.05 1103.3C2180.08 1061.08 2149.13 1033.97 2119.88 1019.06C2078.05 997.752 2039.58 988.729 1990.64 988.756C1956 988.774 1927 993.034 1892.98 1003.11C1888.08 1004.56 1883.9 1005.58 1883.7 1005.38C1883.5 1005.18 1881.68 999.118 1879.65 991.917C1864.25 937.121 1836.35 880.584 1806.23 843.142C1796.18 830.651 1765.15 799.063 1752.87 788.829C1705.17 749.071 1647.29 719.274 1598.96 709.602C1583.79 706.567 1550.5 703.493 1532.8 703.493C1499.43 703.493 1459.25 709.663 1430.43 719.216C1410.85 725.704 1399.23 731.253 1368.17 748.947C1313.34 780.178 1293.09 787.029 1255.63 787.029C1228.39 787.029 1208.45 782.537 1186.08 771.37C1171.66 764.167 1163.14 757.739 1150.9 744.829C1142.71 736.19 1139.3 731.056 1132.17 716.637C1121.65 695.335 1118.3 692.313 1105.23 692.321C1099.46 692.324 1095.5 693.148 1092.51 694.969ZM0 764.136V788.577L7.31232 791.538C18.4354 796.041 44.0076 809.463 55.7129 816.939C92.4444 840.402 127.872 873.499 153.41 908.207C162.428 920.466 182.124 956.227 181.318 958.882C181.113 959.557 184.371 968.332 188.558 978.382C198.299 1001.76 200.959 1009.27 204.656 1023.81C206.31 1030.33 208.304 1038.06 209.086 1041.01C209.869 1043.96 210.309 1046.53 210.064 1046.73C209.82 1046.93 203.352 1050.09 195.692 1053.75C168.722 1066.65 142.497 1082.76 129.576 1094.38C115.476 1107.05 98.5937 1130.86 93.0545 1145.86C90.6741 1152.31 90.0306 1157.14 90.0167 1168.67C90 1182.15 90.3412 1184.03 94.3679 1192.72C105.437 1216.6 129.347 1231.35 156.989 1231.35C184.751 1231.35 207.057 1216.94 230.814 1183.65C243.717 1165.57 252.953 1145.41 258.417 1123.4C258.987 1121.1 260.463 1109.6 261.697 1097.85L263.94 1076.47L269.511 1074.51C280.95 1070.48 306.667 1064.12 323.328 1061.21C344.179 1057.57 386.061 1056.8 401.829 1059.78C451.88 1069.22 482.294 1084.49 515.865 1117C526.615 1127.41 560.899 1165.94 589.019 1199.22C593.919 1205.01 606.141 1217.93 616.179 1227.92C659.089 1270.62 701.449 1290.28 761.492 1295.37C781.262 1297.04 816.635 1295.36 832.908 1291.97C877.719 1282.65 921.298 1257.5 964.361 1216.12C980.217 1200.89 983.333 1196.23 983.333 1187.78C983.333 1175.6 975.129 1166.81 962.099 1165.02C951.908 1163.62 946.807 1166.28 931.309 1181.09C893.249 1217.43 862.579 1236.25 825.194 1246.18C817.043 1248.35 810.17 1248.76 782.07 1248.76C758.726 1248.76 746.331 1248.19 740.981 1246.88C690.345 1234.46 669.037 1218.9 612.871 1153.35C563.157 1095.33 541.65 1073.62 516.041 1055.63C469.42 1022.87 400.031 1006.19 337.357 1012.68C311.808 1015.32 284.735 1020.76 263.406 1027.54C260.048 1028.61 257.148 1029.3 256.963 1029.08C256.778 1028.87 255.587 1024.49 254.318 1019.37C247.314 991.066 235.246 960.112 218.868 928.424C197.616 887.31 181.786 865.491 151.095 835.012C108.99 793.198 62.9361 763.432 8.70514 742.979L0 739.696V764.136ZM5084.5 1031.28C5082.97 1032.17 5077.32 1035.36 5071.96 1038.37C5046.28 1052.75 5034.92 1062.67 5022.97 1081.15C5017.33 1089.87 5016.37 1092.36 5016.32 1098.56C5016.24 1107.29 5019.71 1112.73 5027.19 1115.58C5031.69 1117.29 5033.02 1117.23 5038.88 1115.01C5054.86 1108.96 5078.91 1075.83 5084.87 1051.67C5090.67 1028.16 5090.66 1027.69 5084.5 1031.28ZM3451.41 1058.77C3420.27 1075.59 3400.39 1094.28 3392.4 1114.28C3386.03 1130.24 3398.59 1143.48 3414.39 1137.45C3424.87 1133.44 3445.85 1108.8 3453.51 1091.49C3458.48 1080.24 3465.22 1053.03 3463.01 1053.1C3462.38 1053.12 3457.16 1055.67 3451.41 1058.77ZM1821.07 1084.66C1813.44 1089.01 1802.88 1095.7 1797.61 1099.52C1788.01 1106.49 1773.88 1122.65 1768.95 1132.33C1762.45 1145.07 1764.47 1155.22 1774.53 1160.35C1780.13 1163.21 1780.65 1163.24 1786.27 1161.09C1793.73 1158.24 1801.64 1151.48 1810.38 1140.45C1822.96 1124.59 1829.03 1112.82 1833.57 1095.55C1836.17 1085.61 1837.35 1076.74 1836.06 1076.74C1835.45 1076.74 1828.71 1080.3 1821.07 1084.66ZM197.655 1105.79C182.619 1114.24 172.345 1121.05 164.464 1127.8C155.623 1135.38 142.568 1153.61 139.884 1162.12C137.791 1168.76 137.778 1169.89 139.742 1174.59C142.182 1180.43 149.171 1185.37 154.996 1185.38C164.565 1185.39 172.132 1179.94 185.252 1163.58C195.711 1150.54 201.358 1140.49 206.09 1126.48C210.1 1114.61 212.759 1099.01 210.765 1099.05C210.135 1099.07 204.236 1102.1 197.655 1105.79ZM3635.96 1213.11C3627.2 1217.05 3623.39 1224.37 3619.75 1244.29C3615.95 1265.08 3616.59 1299.93 3621.17 1321.88C3629.51 1361.79 3649.13 1403.47 3677.32 1441.13C3689 1456.73 3714.03 1484.27 3725.98 1494.66C3766.94 1530.29 3820.17 1556.56 3882.58 1571.94C3903.64 1577.14 3905.76 1577.54 3938.2 1582.62C3964.39 1586.73 4019.84 1587.03 4045.45 1583.21C4091.53 1576.34 4108.47 1572.48 4140.39 1561.58L4160.11 1554.85L4166.8 1571.03C4190.48 1628.4 4225.03 1681.29 4261.55 1716.06C4293.52 1746.51 4316.98 1762.25 4351.87 1776.66C4382.05 1789.12 4403.25 1793.93 4452.85 1799.59C4460.9 1800.51 4474.06 1802.1 4482.1 1803.12C4490.15 1804.14 4502.68 1805.73 4509.96 1806.65C4557.45 1812.63 4593.03 1829.17 4621.45 1858.49C4656.59 1894.73 4672.9 1940.39 4672.91 2002.52C4672.92 2018 4672.18 2030.27 4670.83 2037.34C4667.7 2053.69 4668.06 2061.23 4672.26 2067.42C4676.93 2074.28 4683.06 2077.35 4691.96 2077.26C4713.16 2077.06 4719.29 2060.31 4719.41 2002.29C4719.48 1962.45 4716.91 1944.87 4706.08 1911.1C4694.73 1875.76 4677.67 1848.71 4649.74 1821.83C4633.56 1806.26 4618.29 1795.34 4599.46 1785.88C4567 1769.57 4541.36 1763.4 4477.23 1756.47C4419.63 1750.24 4396.99 1745.71 4371.77 1735.37C4340.64 1722.6 4320.7 1709.14 4294.71 1683.33C4258.95 1647.81 4231.04 1604.79 4209.96 1552.72C4206.31 1543.7 4203.55 1535.64 4203.83 1534.81C4204.1 1533.99 4211.18 1527.58 4219.55 1520.57C4247.45 1497.22 4264.01 1473.62 4274.89 1441.67C4285.28 1411.17 4285.35 1395.42 4275.21 1374.05C4267.51 1357.81 4251.65 1344.93 4232.99 1339.75C4202.95 1331.42 4173.28 1343.58 4155.94 1371.33C4151.93 1377.74 4142.17 1401.47 4139.32 1411.72C4135.35 1425.99 4137.96 1477.57 4143.66 1497.44C4144.42 1500.08 4145.04 1504.21 4145.04 1506.62C4145.04 1511.72 4143.91 1512.3 4116.49 1521.32C4073.98 1535.29 4011.97 1543.67 3974.42 1540.51C3899.28 1534.2 3834.91 1513.84 3785.76 1480.85C3739.45 1449.76 3694.98 1392.28 3677.32 1340.69C3665.9 1307.32 3663.74 1277.25 3670.2 1241.56C3671.85 1232.45 3671.78 1231.07 3669.38 1225.75C3665.31 1216.73 3659.33 1212.96 3648.12 1212.36C3642.97 1212.08 3637.49 1212.42 3635.96 1213.11ZM2010.4 1236.79C2004.14 1239.63 1999.91 1244.73 1997.57 1252.24C1989.53 1278 1989.72 1320.49 1998.03 1354.62C2011.19 1408.64 2043.49 1461.86 2091.52 1508.62C2108.73 1525.36 2118.03 1532.72 2138.16 1545.48C2190.26 1578.51 2250.87 1598.35 2328.1 1607.66C2381.8 1614.13 2457.24 1604.95 2513.49 1585.11C2522.61 1581.9 2531.26 1579.18 2532.72 1579.07C2534.68 1578.92 2536.08 1580.67 2538.11 1585.83C2539.61 1589.66 2541.94 1595.3 2543.29 1598.36C2544.63 1601.43 2547.2 1607.38 2549 1611.6C2558.51 1633.94 2578.89 1669.19 2595.3 1691.68C2614.23 1717.63 2645.57 1750.08 2667.08 1766.01C2691.04 1783.74 2721.2 1799.32 2748.6 1808.12C2762.62 1812.63 2789.34 1818.08 2808.63 1820.38C2815.52 1821.2 2828.68 1822.8 2837.88 1823.94C2847.07 1825.07 2860.23 1826.67 2867.12 1827.49C2896.87 1831.02 2912.68 1834.11 2929.11 1839.62C2954.62 1848.19 2974.45 1860.31 2992.84 1878.6C3023.45 1909.02 3037.17 1937.59 3045.32 1987.84C3048.17 2005.43 3048.22 2044.12 3045.41 2060.09C3042.61 2075.97 3042.78 2082.82 3046.12 2089.38C3052.37 2101.63 3071.77 2104.67 3081.95 2095.01C3091.24 2086.2 3093.93 2070.77 3094.02 2025.97C3094.07 1998.28 3093.56 1988.3 3091.57 1977.22C3083.06 1930.02 3071.37 1901.14 3049.03 1872.06C3026.9 1843.25 3003.13 1823.3 2972.98 1808.26C2959.08 1801.32 2934.06 1792.22 2922.16 1789.77C2905.16 1786.28 2868.62 1781.11 2833.7 1777.26C2817.66 1775.5 2795.37 1772.28 2784.25 1770.13C2760.65 1765.55 2724.83 1750.35 2703.95 1736.05C2674.1 1715.6 2642.51 1681.08 2619 1643.24C2601.52 1615.1 2576.9 1562.07 2578.89 1556.88C2579.34 1555.71 2583.3 1552.23 2587.7 1549.14C2620.48 1526.15 2647.03 1485.41 2655.46 1445.15C2663.17 1408.34 2646.24 1376.56 2612.36 1364.26C2604.89 1361.55 2600.37 1360.88 2589.41 1360.88C2554.05 1360.88 2531.7 1381 2515.9 1427.04C2512.28 1437.62 2512.09 1439.46 2512.15 1463.26C2512.21 1487.07 2514.23 1505.74 2518.24 1519.73C2519 1522.37 2519.62 1526.56 2519.62 1529.04C2519.62 1534 2518.95 1534.42 2500.12 1541.41C2478.59 1549.4 2440.97 1557.77 2409.58 1561.55C2390.24 1563.89 2347.09 1563.92 2328.8 1561.62C2240.38 1550.5 2170.01 1520.19 2123.35 1473.14C2080.11 1429.53 2053.73 1382.66 2043.34 1330.94C2041.24 1320.46 2042.03 1281.02 2044.66 1265.38C2046.48 1254.57 2046.43 1253.89 2043.43 1247.7C2040.96 1242.59 2038.85 1240.53 2033.16 1237.7C2024.72 1233.49 2018.23 1233.23 2010.4 1236.79ZM383.653 1259.77C376.104 1263.06 372.396 1269.14 368.936 1283.89C366.163 1295.71 365.75 1301.1 365.802 1324.67C365.858 1348.9 366.27 1353.67 369.629 1368.93C380.962 1420.39 406.648 1468.05 447.9 1514.15C486.009 1556.74 530.587 1585.3 592.646 1606.9C607.606 1612.1 645.456 1622.06 658.494 1624.22C701.48 1631.33 704.992 1631.64 742.374 1631.68C779.468 1631.71 786.821 1631.09 823.854 1624.79C848.56 1620.58 874.134 1613.74 896.099 1605.45C901.361 1603.47 906.447 1601.85 907.403 1601.85C908.358 1601.85 910.558 1605.73 912.292 1610.49C915.051 1618.06 918.303 1625.51 927.354 1645.02C931.66 1654.31 948.212 1683.59 955.828 1695.39C962.989 1706.49 978.641 1728.43 980.508 1729.99C980.967 1730.37 985.167 1735.39 989.838 1741.13C1010.79 1766.89 1045.95 1795.72 1075.26 1811.15C1112.4 1830.71 1141.34 1838.68 1199.92 1845.49C1275.95 1854.32 1292.46 1857.49 1316.6 1867.9C1340.65 1878.27 1361.55 1893.82 1377.75 1913.39C1398.14 1938.04 1406.12 1954.44 1415.25 1990.45C1420.84 2012.51 1422.49 2061.41 1418.49 2086.22C1415.73 2103.31 1416.64 2110.1 1422.52 2116.34C1430.04 2124.31 1441.26 2126.13 1451.36 2121.03C1459.97 2116.68 1463.07 2111.27 1466.08 2095.31C1469.68 2076.26 1469.73 2021.43 1466.17 2000.31C1456.41 1942.46 1437.27 1904.75 1398.89 1867.8C1371.15 1841.1 1341.3 1824.69 1301.59 1814.33C1284.71 1809.92 1263.38 1806.59 1224.99 1802.38C1180.26 1797.46 1155.02 1793.19 1138.15 1787.67C1075.78 1767.27 1027.91 1724.95 985.427 1652.69C974.204 1633.59 952.69 1586.48 952.69 1580.99C952.69 1580.24 958.255 1575.23 965.055 1569.87C999.546 1542.66 1020.3 1510.25 1030.04 1468.39C1040.49 1423.46 1008.69 1383.4 962.44 1383.23C936.174 1383.14 913.214 1398.55 900.237 1424.99C892.692 1440.36 887.962 1453.94 885.935 1466.06C883.786 1478.91 886.008 1514.98 890.181 1534.99C894.863 1557.45 895.366 1555.83 882.062 1561.14C849.922 1573.97 807.269 1582.78 759.088 1586.55C712.171 1590.21 641.24 1577.34 589.318 1555.73C551.088 1539.82 526.005 1523.32 498.497 1495.99C455.864 1453.63 429.725 1408.56 419.177 1359.19C415.675 1342.81 415.432 1310.15 418.68 1292.81C421.226 1279.23 420.698 1273.52 416.329 1267.39C410.381 1259.03 394.073 1255.23 383.653 1259.77ZM4207.47 1385.65C4201.68 1389.46 4198.1 1394.81 4193.03 1407.2C4185.55 1425.46 4184.62 1433.75 4187.31 1457.72C4188.57 1468.94 4190.13 1479.05 4190.76 1480.18C4191.65 1481.78 4193.79 1480.23 4200.39 1473.17C4211.81 1460.96 4217.1 1452.99 4223.26 1438.7C4229.71 1423.75 4232.79 1412.09 4232.79 1402.63C4232.79 1395.88 4232.34 1394.89 4226.7 1389.25C4219.83 1382.38 4214.06 1381.3 4207.47 1385.65ZM2580.89 1409.98C2575.52 1413.64 2566.77 1430.01 2563.52 1442.47C2561.11 1451.73 2560.79 1473.23 2562.83 1488.97C2565.04 1505.99 2564.75 1505.76 2573.48 1497.19C2586.3 1484.62 2593.9 1473.1 2600.03 1456.99C2609.9 1431.04 2609.76 1417.79 2599.54 1409.76C2594.61 1405.87 2586.78 1405.97 2580.89 1409.98ZM4346.89 1425.34C4334.99 1433.35 4332.92 1444.24 4340.09 1461.09C4348.29 1480.34 4356.53 1492.84 4371.04 1508.01C4414.89 1553.83 4485.7 1573.24 4555.23 1558.49C4571.71 1554.99 4591.39 1547.74 4610.23 1538.23C4621.35 1532.63 4630.99 1528.03 4631.66 1528.03C4632.33 1528.03 4641.11 1523.27 4651.16 1517.47C4685.94 1497.38 4700.44 1491.79 4738.38 1483.84C4748.22 1481.78 4756.94 1481.38 4789.92 1481.47C4832.9 1481.58 4843.13 1482.85 4866.37 1490.97C4914.08 1507.64 4955.68 1533.81 4993.73 1571.1C5022.43 1599.21 5037.32 1619.12 5054.68 1652.55C5070.58 1683.15 5079.97 1706.7 5087.25 1734.17C5092.72 1754.8 5093.16 1753.67 5076.43 1761.82C5048.61 1775.37 5024.7 1790.22 5011.07 1802.41C5001.07 1811.35 4985.07 1832.52 4978.81 1845.08C4972.53 1857.7 4970.5 1867.17 4971.27 1880.37C4973.8 1924.21 5025.17 1952.17 5065.98 1931.92C5077.24 1926.33 5082.46 1922.37 5093.34 1911.14C5123.54 1879.95 5140.21 1841 5141.3 1799.05L5141.7 1783.84L5150.71 1781.13C5167.49 1776.07 5190.3 1770.44 5203.58 1768.07C5221.99 1764.79 5272.07 1764.71 5287.85 1767.94C5312.15 1772.9 5326.9 1777.73 5346.55 1787.17C5376.55 1801.59 5397.28 1820.86 5453.61 1886.68C5493.99 1933.86 5516.25 1955.35 5540.65 1970.69C5549.2 1976.06 5575.85 1988.6 5585.22 1991.66C5614.09 2001.08 5631.73 2003.39 5669.96 2002.77C5687.32 2002.49 5702.3 2001.76 5703.26 2001.15C5704.54 2000.33 5705 1993.9 5705 1976.97V1953.91L5701.87 1954.89C5700.14 1955.43 5689.64 1956.38 5678.54 1957C5629.51 1959.73 5594.58 1951.27 5559.72 1928.22C5548.78 1920.99 5521.78 1894.96 5505.8 1876.24C5485.56 1852.52 5471.79 1836.53 5471.02 1835.84C5470.59 1835.46 5464.51 1828.57 5457.51 1820.52C5404.21 1759.27 5357.2 1732.26 5285.06 1721.45C5268.64 1718.98 5261.61 1718.64 5240.49 1719.3C5226.7 1719.72 5211.98 1720.67 5207.76 1721.41C5203.55 1722.14 5195.4 1723.5 5189.66 1724.41C5183.91 1725.33 5170.75 1728.3 5160.41 1731C5150.06 1733.7 5140.44 1735.99 5139.02 1736.08C5136.87 1736.23 5135.65 1733.44 5131.8 1719.54C5121.1 1681.03 5105.32 1644.96 5082.86 1607.65C5068.37 1583.58 5057.63 1570.14 5032.28 1544.35C5020.4 1532.26 5010.46 1521.92 5010.2 1521.37C5009.38 1519.62 4991.64 1505.8 4978.64 1496.78C4944.25 1472.91 4900.98 1451.98 4867.89 1443.21C4838.77 1435.49 4793.54 1432.23 4758.58 1435.32C4702.7 1440.26 4675.66 1448.83 4626.05 1477.29C4568.01 1510.6 4549.56 1516.88 4509.7 1516.88C4467.34 1516.88 4438.64 1506.27 4411.96 1480.75C4399.88 1469.2 4395.52 1463.02 4386 1443.94C4379.09 1430.11 4377.73 1428.28 4372.2 1425.38C4363.88 1421.03 4353.31 1421.01 4346.89 1425.34ZM958.958 1430.76C951.415 1434.93 946.767 1441.78 940.066 1458.59C937.963 1463.87 936.882 1470.37 936.364 1480.86C935.648 1495.35 937.727 1520.85 939.948 1524.82C940.793 1526.33 943.172 1524.56 949.82 1517.45C965.939 1500.22 976.087 1480.01 980.615 1456.13C982.068 1448.46 981.944 1446.96 979.394 1441.19C975.107 1431.5 966.014 1426.86 958.958 1430.76ZM2726.14 1445.95C2720.86 1447.54 2712.11 1456.08 2710.92 1460.8C2709.27 1467.37 2711.46 1477.41 2717.22 1489.72C2740.02 1538.41 2784.03 1570.47 2845.54 1583.22C2862.24 1586.68 2907.07 1586.73 2922.84 1583.3C2946.95 1578.06 2963.96 1572.03 2986.48 1560.73C2996.37 1555.76 3004.99 1551.7 3005.63 1551.7C3006.28 1551.7 3014.55 1547.23 3024.02 1541.77C3062.21 1519.73 3081.88 1512.33 3118.53 1506.23C3146.66 1501.54 3202.7 1503.25 3225.78 1509.5C3268.19 1520.99 3314.11 1545.94 3350.43 1577.24C3370.4 1594.44 3391.46 1616.63 3404.21 1633.88C3426.74 1664.38 3451.47 1717.54 3462.51 1759.24C3467.41 1777.73 3467.89 1776.8 3448.4 1786.2C3396 1811.46 3365.56 1838.83 3350.62 1874.15C3338.32 1903.22 3348.96 1935.51 3376.34 1952.21C3387.96 1959.3 3399.06 1961.7 3416.24 1960.83C3429.56 1960.16 3431.31 1959.71 3442.62 1954.11C3456.85 1947.06 3470.72 1934.14 3484.33 1915.24C3504.45 1887.32 3514.23 1859.28 3516.29 1823.69C3517.09 1809.81 3517.68 1806.53 3519.51 1805.97C3535.86 1800.97 3558.34 1795.1 3571.2 1792.46C3585.58 1789.52 3590.77 1789.19 3622.03 1789.25C3653.2 1789.31 3658.24 1789.64 3670.09 1792.46C3701.04 1799.81 3728.59 1811.77 3747.39 1826.02C3763.28 1838.07 3787.07 1861.95 3811.36 1890.26C3849.34 1934.52 3862.53 1949.19 3876.78 1963.02C3920.96 2005.9 3973.41 2026.62 4037.79 2026.65C4104.18 2026.68 4154.75 2005.01 4212.95 1951.59C4234.67 1931.66 4237.36 1928.04 4237.36 1918.87C4237.36 1904.9 4228.49 1895.74 4214.96 1895.74C4205.5 1895.74 4203.78 1896.7 4190.31 1909.53C4135.36 1961.85 4094.9 1980.72 4037.79 1980.67C4005 1980.64 3979.06 1975.04 3953.95 1962.58C3925.55 1948.49 3911 1934.96 3859.58 1874.84C3815.11 1822.85 3793.12 1801.2 3766.24 1782.95C3748.15 1770.66 3714.08 1755.94 3690.82 1750.36C3662.49 1743.57 3659.43 1743.26 3621.34 1743.32C3583.45 1743.39 3582.29 1743.51 3547.52 1750.65C3539.97 1752.2 3513.81 1759.24 3512.42 1760.1C3511.88 1760.44 3510.77 1758.03 3509.95 1754.75C3498.15 1707.3 3472.98 1650.79 3447.42 1614.38C3429.11 1588.3 3387.67 1545.15 3363.67 1527.17C3324.9 1498.13 3272.22 1472.54 3233.44 1463.91C3204.12 1457.38 3154.65 1455.27 3122.07 1459.15C3070.07 1465.35 3043.44 1474.83 2990.39 1506.04C2963.21 1522.03 2943.6 1530.78 2921.94 1536.58C2911.78 1539.29 2906.86 1539.69 2883.14 1539.69C2856.46 1539.68 2855.73 1539.61 2841.57 1535.19C2822.86 1529.37 2808.03 1521.82 2795.24 1511.63C2779.09 1498.76 2769.32 1486.08 2760.67 1466.74C2755.64 1455.5 2752.15 1450.81 2746.63 1447.94C2741.67 1445.36 2731.42 1444.36 2726.14 1445.95ZM1095.3 1470.71C1087.61 1475.53 1084.31 1481.68 1084.33 1491.11C1084.38 1507.58 1104.3 1541.06 1125.81 1560.8C1155.1 1587.69 1189.09 1602.39 1235.43 1608.21C1280.05 1613.81 1323.65 1604.4 1369.68 1579.23C1374.96 1576.35 1380.11 1573.99 1381.13 1573.99C1382.15 1573.99 1391.3 1569.15 1401.48 1563.24C1434.29 1544.19 1450.34 1537.83 1481.96 1531.36C1514.16 1524.77 1569.54 1525.23 1598.5 1532.33C1664.11 1548.4 1741.05 1603.42 1782.43 1663.83C1800.42 1690.1 1819.89 1730.27 1830.68 1763.42C1833.75 1772.85 1839.92 1796.92 1839.92 1799.49C1839.92 1800.06 1834.75 1802.97 1828.43 1805.96C1789.75 1824.26 1761.73 1843.2 1747.66 1860.55C1727 1886.03 1718.74 1903.41 1718.74 1921.43C1718.74 1962.73 1759.63 1992.77 1802.18 1982.73C1816.78 1979.29 1826.68 1973.14 1841.31 1958.43C1871.92 1927.65 1886.98 1894.25 1890.59 1849.14L1892.15 1829.69L1902.6 1826.45C1916.18 1822.24 1939.21 1816.71 1954.13 1814.08C1971.05 1811.1 2020.54 1811.04 2036.31 1813.99C2070.99 1820.46 2102.98 1834.35 2126.14 1853C2140.82 1864.82 2165.81 1890.73 2191.56 1920.82C2246.3 1984.8 2260.79 1999.04 2288.64 2016.3C2314.43 2032.28 2339.37 2041.5 2371.28 2046.84C2388.64 2049.75 2438.7 2049.73 2453.66 2046.81C2488.65 2039.98 2512.98 2029.96 2542.6 2010.18C2572.04 1990.51 2608.88 1956.98 2611.51 1947.45C2616.57 1929.11 2596.78 1912.32 2579.11 1919.96C2576.65 1921.03 2568.25 1927.94 2560.44 1935.32C2520.27 1973.34 2491.19 1990.76 2452.23 2000.16C2434.62 2004.42 2391.49 2004.55 2371.87 2000.42C2347.7 1995.33 2329.2 1987.62 2309.07 1974.25C2297.88 1966.82 2270.85 1940.82 2254.95 1922.2C2235.14 1898.99 2220.95 1882.49 2220.19 1881.81C2219.76 1881.43 2214.34 1875.16 2208.12 1867.88C2192.15 1849.17 2167.62 1825.82 2150.62 1813.14C2134.86 1801.39 2104.45 1785.54 2086.45 1779.71C2050.53 1768.06 2023.6 1764.11 1988.25 1765.3C1965.74 1766.05 1956.43 1767.07 1930.45 1771.61C1924.13 1772.72 1897.35 1779.62 1888.42 1782.45C1886.61 1783.02 1885.7 1781.81 1884.43 1777.13C1874.58 1740.81 1866.57 1719.27 1851.89 1689.6C1833.62 1652.66 1820.68 1632.97 1796.94 1606.02C1753.55 1556.77 1711.18 1526.21 1652.51 1501.87C1618 1487.55 1599.3 1483.5 1554.64 1480.66C1523.77 1478.7 1487.72 1481.42 1460.37 1487.77C1427.23 1495.47 1408.44 1503.29 1371.7 1524.69C1334.13 1546.58 1313.04 1555.86 1289.68 1560.77C1276.86 1563.47 1239.54 1563.56 1226.94 1560.92C1201.19 1555.54 1177.29 1543.17 1160.4 1526.47C1149.46 1515.67 1143.02 1506.34 1135.19 1489.93C1126.74 1472.25 1122.91 1469.14 1108.7 1468.43C1101.57 1468.08 1098.71 1468.56 1095.3 1470.71ZM0 1539.66V1563.82L9.40155 1567.76C73.7179 1594.68 137.552 1650 169.281 1706.31C183.943 1732.33 195.68 1757.87 203.846 1781.52C208.007 1793.57 214.528 1818.36 214.422 1821.72C214.373 1823.26 207.202 1827.52 192.485 1834.76C165.088 1848.24 142.842 1862.78 130.204 1875.47C119.717 1886.01 106.977 1903.25 101.338 1914.54C97.2246 1922.77 93.3191 1937.65 93.3191 1945.07C93.3191 1952.15 96.9599 1965.8 100.945 1973.67C105.931 1983.51 118.869 1995.46 130.925 2001.36C141.325 2006.45 141.451 2006.47 159.478 2006.47H177.585L189.754 2000.52C204.411 1993.35 216.191 1982.82 229.71 1964.8C252.03 1935.05 262.487 1906.33 264.475 1869.31L265.333 1853.33L272.241 1850.77C280.89 1847.57 301.26 1842.29 320.349 1838.31C333.024 1835.67 339.523 1835.26 369.098 1835.21C407.458 1835.14 417.808 1836.65 445.71 1846.36C492.776 1862.74 512.408 1879.85 591.814 1973.65C605.371 1989.66 634.631 2018.72 645.573 2027.04C686.205 2057.93 731.303 2072.61 785.552 2072.61C817.638 2072.61 839.712 2068.93 867.032 2059.03C898.512 2047.62 936.311 2022.04 969.155 1989.92C983.983 1975.42 986.118 1972.1 986.118 1963.57C986.118 1956.33 982.14 1949.64 974.942 1944.75C970.851 1941.97 968.771 1941.54 961.526 1941.99C952.986 1942.51 952.909 1942.55 940.943 1953.6C909.325 1982.78 889.022 1997.98 866.975 2008.97C840.455 2022.19 820.088 2026.66 786.248 2026.66C753.684 2026.66 731.289 2022.17 706.786 2010.72C678.859 1997.67 659.74 1981.17 622.787 1938.22C571.077 1878.12 552.343 1858.24 532.755 1842.7C501.917 1818.23 469.442 1803.19 426.9 1793.68C407.701 1789.39 406.832 1789.33 370.491 1789.37C332.702 1789.41 330.827 1789.6 296.671 1796.61C290.065 1797.96 264.778 1804.7 261.344 1806.02C259.926 1806.56 259.05 1805.42 258.387 1802.17C254.066 1780.98 240.926 1744.48 227.718 1716.96C204.752 1669.11 184.885 1641.78 143.979 1601.74C115.792 1574.15 87.9888 1554.37 52.9272 1536.98C35.8387 1528.5 4.76763 1515.49 1.60592 1515.49C0.455453 1515.49 0 1522.34 0 1539.66ZM5087.28 1807.49C5055.05 1824.25 5039.75 1836.28 5027.27 1854.65C5020.47 1864.66 5019.17 1867.58 5018.63 1874.11C5018.01 1881.56 5018.17 1881.96 5023.57 1887.37C5028.29 1892.09 5030.05 1892.95 5034.93 1892.95C5043.24 1892.95 5049.07 1890.04 5057.71 1881.59C5074.34 1865.31 5085.95 1844.85 5091.57 1821.92C5093.66 1813.43 5094.12 1805.17 5092.51 1805.26C5091.93 1805.29 5089.58 1806.29 5087.28 1807.49ZM3459.77 1831.9C3455.56 1834.24 3449.29 1837.72 3445.84 1839.63C3424.63 1851.44 3409.75 1864.95 3399.06 1882.11C3394.39 1889.61 3393.61 1892 3393.61 1898.76C3393.61 1908.15 3396.78 1912.47 3405.58 1915.11C3416.24 1918.3 3427.5 1912.09 3440.43 1895.9C3449.82 1884.13 3457.26 1871.54 3461.32 1860.57C3465.02 1850.54 3468.42 1835.3 3467.88 1831.11L3467.43 1827.66L3459.77 1831.9ZM1828.72 1857.93C1799.09 1874.5 1787.86 1883.91 1775.18 1902.81C1770.06 1910.44 1768.51 1914.11 1767.89 1920.11C1767.13 1927.54 1767.23 1927.84 1772.71 1933.32C1777.45 1938.06 1779.19 1938.92 1784.1 1938.92C1792.07 1938.92 1798.83 1935.1 1808.11 1925.37C1824.41 1908.26 1836.3 1885.35 1840.64 1862.63C1841.78 1856.71 1842.7 1851.71 1842.7 1851.51C1842.7 1850.44 1839.41 1851.95 1828.72 1857.93ZM206.771 1878.6C178.613 1893.25 163.087 1905.22 152.35 1920.55C137.509 1941.73 137.031 1952.97 150.677 1959.94C161.176 1965.29 171.136 1961.62 183.865 1947.69C196.966 1933.36 206.071 1918.04 211.443 1901.31C214.645 1891.33 218.002 1875.1 217.059 1874.16C216.729 1873.83 212.099 1875.83 206.771 1878.6ZM3666.21 1909.2C3657.84 1913.32 3654.6 1919.81 3651.24 1939.15C3646.88 1964.27 3648.5 1999.11 3655.38 2028.33C3667.08 2077.99 3702.09 2135.72 3746.91 2179.24C3772.36 2203.96 3792.49 2218.22 3824.36 2234.12C3874.84 2259.3 3922.74 2272.74 3986.26 2279.54C4047 2286.04 4121.51 2276 4181.59 2253.22C4192.45 2249.1 4190.73 2247.76 4198.38 2266.31C4230.49 2344.18 4280.77 2409.87 4336.71 2447.04C4375.31 2472.69 4414.11 2486.26 4466.82 2492.53C4477.14 2493.76 4492.79 2495.67 4501.6 2496.78C4510.41 2497.89 4525.55 2499.77 4535.24 2500.96C4593.55 2508.09 4628.58 2525.19 4660.96 2562.33C4682.06 2586.55 4694.74 2615.36 4701.67 2654.84C4704.96 2673.64 4705.64 2711.27 4703 2728.56C4701.78 2736.55 4700.78 2746.73 4700.78 2751.19C4700.78 2758.54 4701.24 2759.81 4705.8 2764.86C4716.28 2776.46 4733.72 2775.4 4742.46 2762.65C4748.93 2753.2 4751.3 2735.9 4751.39 2697.32C4751.48 2660.59 4750.14 2648.83 4742.44 2619.05C4731.99 2578.64 4714.46 2548.43 4684.1 2518.52C4659.88 2494.65 4635.52 2479.6 4603.07 2468.44C4581.05 2460.87 4558.27 2456.78 4500.21 2450C4483.53 2448.05 4449.97 2443.37 4441.71 2441.85C4410.65 2436.12 4371.9 2417.55 4345.98 2395.97C4308.6 2364.86 4282.42 2331.25 4257.01 2281.74C4248.31 2264.79 4234.14 2231.48 4234.21 2228.15C4234.23 2227.27 4238.33 2223.46 4243.31 2219.71C4263.05 2204.83 4283.27 2181.62 4292.8 2162.87C4302.73 2143.33 4310.43 2119.13 4311.75 2103.27C4313.99 2076.38 4296.68 2048.55 4271.08 2037.89C4247.98 2028.28 4223.31 2031.83 4203.67 2047.62C4192.88 2056.29 4181.29 2075.79 4173.27 2098.79C4169.68 2109.06 4169.52 2110.76 4169.54 2136.7C4169.56 2159.09 4170.12 2166.68 4172.69 2179.88C4174.42 2188.69 4176.17 2198.15 4176.6 2200.9L4177.38 2205.89L4162.25 2211.53C4147.99 2216.85 4122.41 2224.38 4111.61 2226.43C4053.61 2237.48 4014.32 2238.57 3963.97 2230.53C3904.44 2221.03 3858.65 2204.17 3815.28 2175.81C3802.29 2167.31 3794.12 2160.47 3778.39 2144.88C3716.12 2083.18 3686.18 2009 3697.87 1945.41C3701.1 1927.84 3700.81 1922.69 3696.26 1916.25C3690.29 1907.81 3675.89 1904.43 3666.21 1909.2ZM2043.97 1930.77C2038.37 1932.82 2032.33 1938.6 2030 1944.13C2026.19 1953.19 2023.61 1974.13 2023.61 1996.02C2023.61 2024.2 2026.81 2044.03 2035.63 2070.54C2056.34 2132.77 2107.6 2199.52 2163.05 2236.46C2227.34 2279.28 2314.98 2304.3 2400.53 2304.25C2450.75 2304.22 2499.6 2296.13 2546.16 2280.13C2557.14 2276.36 2566.25 2273.42 2566.41 2273.59C2566.56 2273.76 2569.94 2281.7 2573.92 2291.24C2611.35 2381.01 2670.06 2450.86 2736.9 2485.14C2773.96 2504.15 2800.62 2511.2 2862.25 2518.28C2875.97 2519.86 2900.25 2522.83 2920.75 2525.44C2943.03 2528.28 2965.45 2535.04 2984.44 2544.64C3023.4 2564.35 3056.7 2603.91 3068.39 2644.39C3078.08 2677.93 3082.08 2720.7 3078.03 2747.46C3077.34 2752.06 3076.41 2761.46 3075.97 2768.36C3075.26 2779.44 3075.5 2781.42 3078.03 2785.43C3086.66 2799.1 3107.42 2799.21 3117.46 2785.65C3118.92 2783.67 3121.45 2776.46 3123.08 2769.63C3125.68 2758.69 3126.04 2752.9 3126.11 2721C3126.2 2678.14 3124.54 2666.42 3112.83 2626.98C3110.24 2618.26 3101.24 2597.31 3096.76 2589.56C3077.3 2555.9 3041.55 2521.56 3007.8 2504.11C2977.95 2488.68 2950.71 2481.79 2893.59 2475.24C2816.53 2466.4 2805.67 2464.27 2776.59 2452.24C2747.43 2440.18 2726.26 2425.63 2697.06 2397.6C2667.11 2368.85 2635.75 2319.48 2615.83 2269.72C2611.94 2260 2608.76 2251.57 2608.76 2250.98C2608.76 2250.39 2613.27 2246.55 2618.79 2242.45C2651.55 2218.08 2673.65 2184.19 2684.11 2142.27C2693.48 2104.74 2675.2 2070.17 2639.82 2058.49C2634.62 2056.78 2627.93 2055.91 2619.86 2055.91C2600.89 2055.91 2588 2061.37 2573.76 2075.42C2566.11 2082.97 2563.22 2087.26 2556.83 2100.52C2544.73 2125.65 2544.02 2128.93 2544.01 2159.68C2544.01 2185.48 2544.76 2192.59 2549.87 2215.57C2551.08 2221.03 2551.74 2226.4 2551.31 2227.49C2550.49 2229.64 2530.35 2237.45 2511.26 2243.02C2492.49 2248.5 2475.89 2251.87 2447.19 2256.04C2424.53 2259.34 2375.67 2259.31 2353.17 2255.98C2332.01 2252.86 2304.5 2247.35 2291.89 2243.73C2286.53 2242.19 2280.26 2240.44 2277.96 2239.83C2268.22 2237.29 2237.97 2225.52 2225.73 2219.52C2196.14 2205.02 2175.37 2190.44 2153.23 2168.61C2128.97 2144.69 2111.48 2121.02 2095.66 2090.72C2082.08 2064.69 2077.36 2050.8 2072.5 2022.49C2069.49 2005.03 2069.09 1992.94 2071.07 1980C2076.11 1947.12 2076.03 1949.34 2072.36 1942.22C2067.21 1932.2 2054.3 1927 2043.97 1930.77ZM413.654 1955.55C401.995 1961.72 397.897 1978.14 397.814 2019C397.751 2050.02 398.856 2058.81 405.832 2082.88C425.529 2150.82 478.182 2221.04 539.719 2261.43C552.793 2270.01 584.721 2286.71 600.306 2293.12C650.77 2313.87 722.345 2328.23 773.713 2327.9C806.322 2327.7 842.008 2323.38 880.264 2315.01C891.306 2312.59 912.347 2306.39 923.441 2302.29C940.577 2295.96 939.876 2295.75 944.995 2308.72C956.288 2337.33 975.774 2373.78 994.034 2400.45C1030.46 2453.67 1074.06 2492.1 1123.31 2514.41C1152.15 2527.47 1179.67 2534.55 1219.42 2539.14C1292.84 2547.6 1312.23 2550.65 1331.79 2556.78C1380.85 2572.17 1421.39 2611.02 1439.19 2659.71C1444.24 2673.52 1449.39 2696.25 1451.34 2713.34C1453.28 2730.36 1452.59 2764.42 1449.86 2786.08C1448.17 2799.5 1448.21 2801.49 1450.26 2805.78C1455.9 2817.61 1471.42 2822.48 1483.25 2816.13C1491.87 2811.49 1494.45 2807.35 1497.49 2793.22C1500.89 2777.38 1502.34 2736.78 1500.3 2714.04C1496.57 2672.23 1484.23 2632.72 1465.91 2604C1448.9 2577.32 1422.37 2550.99 1396.68 2535.28C1365.8 2516.39 1335.07 2506.61 1289.06 2501.02C1208.6 2491.23 1192.46 2488.85 1176.93 2484.46C1150.04 2476.86 1125.12 2464.55 1102.55 2447.7C1085.9 2435.26 1057.04 2406.47 1044.93 2390.2C1024.5 2362.77 1006.11 2330.11 991.911 2296.05C981.844 2271.91 981.916 2273.39 990.542 2267.63C999.804 2261.44 1023 2238.66 1030.24 2228.63C1046.71 2205.81 1061.32 2167.18 1061.33 2146.39C1061.34 2103.38 1021.93 2070.98 980.267 2079.75C967.961 2082.35 958.281 2087.88 947.595 2098.43C939.088 2106.83 936.504 2110.61 929.993 2124.23C925.795 2133 921.288 2144.26 919.977 2149.24C916.756 2161.47 915.729 2187.09 917.772 2204.21C919.456 2218.3 924.157 2244.74 925.688 2248.73C926.294 2250.31 924.7 2251.68 919.756 2253.82C912.248 2257.07 893.736 2263.57 885.139 2265.98C868.088 2270.74 864.185 2271.61 842.657 2275.43C798.803 2283.21 747.379 2283.49 709.643 2276.17C705.813 2275.42 698.605 2274.07 693.625 2273.15C661.34 2267.2 622.158 2253.84 593.147 2238.89C567.508 2225.67 548.191 2211.57 527.928 2191.29C499.623 2162.95 485.297 2143.33 467.749 2108.87C457.695 2089.13 450.939 2068.69 447.175 2046.63C443.576 2025.54 443.575 2015.13 447.168 1993.24C448.758 1983.56 449.638 1973.71 449.15 1971.07C448.005 1964.84 442.561 1957.83 436.718 1955.06C430.506 1952.11 419.724 1952.34 413.654 1955.55ZM4236.03 2080.9C4230.61 2084.21 4225.71 2092.36 4219.98 2107.64C4216.01 2118.21 4215.6 2120.77 4215.59 2135.31C4215.57 2150.6 4218.06 2172.82 4220.25 2176.94C4221.03 2178.42 4222.82 2177.46 4227.73 2172.94C4241.3 2160.43 4253.49 2140.58 4260.18 2120.12C4266.77 2099.96 4265.96 2090.29 4257.03 2082.45C4251.18 2077.31 4242.92 2076.71 4236.03 2080.9ZM2608.35 2106.41C2602.87 2111.6 2599.47 2117.85 2594.3 2132.26C2591.09 2141.22 2590.65 2144.55 2590.65 2160.11C2590.65 2175.57 2593.44 2198.45 2595.59 2200.6C2596.92 2201.94 2613.12 2184.74 2619.46 2175.26C2629.84 2159.74 2639.4 2134.15 2639.4 2121.91C2639.4 2115.82 2635.05 2107.18 2630.47 2104.18C2628.4 2102.82 2624.13 2101.88 2620.05 2101.88C2614.16 2101.88 2612.43 2102.55 2608.35 2106.41ZM4379.67 2119.71C4377.34 2121.18 4373.73 2124.4 4371.66 2126.86C4368.51 2130.6 4367.89 2132.67 4367.89 2139.42C4367.89 2143.87 4368.89 2149.93 4370.11 2152.9C4388.88 2198.63 4424.53 2231.08 4474.45 2247.88C4496.26 2255.22 4513.99 2257.88 4541.22 2257.88C4587.07 2257.88 4618.42 2248.3 4668.74 2218.89C4712.51 2193.32 4729.53 2186.33 4765.99 2178.96C4781.64 2175.79 4850.05 2175.32 4866.52 2178.26C4889.47 2182.36 4907.11 2188.43 4934.3 2201.56C4995.4 2231.09 5051.41 2282.88 5080.29 2336.57C5083.18 2341.94 5086.95 2348.83 5088.68 2351.9C5093.55 2360.52 5106.59 2390.9 5111.41 2404.82C5116.38 2419.17 5122.8 2442.94 5122.8 2446.96C5122.8 2449.05 5119.28 2451.39 5107.83 2456.95C5052.44 2483.8 5022.31 2510.85 5007.61 2546.89C4998.27 2569.81 5002.65 2594.74 5019.27 2613.13C5029.78 2624.77 5046.19 2632.31 5063.61 2633.52C5093.28 2635.58 5117.65 2620.58 5143.23 2584.5C5162.02 2557.99 5171.62 2529.95 5173.65 2495.62C5174.77 2476.56 5172.28 2479.09 5196.62 2472.23C5265.38 2452.85 5322.67 2455.99 5376.99 2482.11C5406.05 2496.08 5428.23 2515.6 5468.9 2562.97C5530.26 2634.44 5549.48 2653.08 5578.97 2669.71C5612.48 2688.61 5640.02 2696.18 5680.28 2697.57L5705 2698.42V2675.43V2652.45L5683.06 2651.64C5634.3 2649.86 5599.9 2634.64 5564.34 2599.13C5555.52 2590.32 5535.15 2567.77 5519.06 2549.02C5475.89 2498.7 5463.49 2485.86 5439.4 2466.53C5380.47 2419.22 5297.21 2402.85 5210.16 2421.47C5201.14 2423.4 5188.33 2426.55 5181.71 2428.47C5175.09 2430.39 5169.41 2431.71 5169.11 2431.4C5168.8 2431.09 5166.99 2424.98 5165.08 2417.83C5157.52 2389.43 5151.14 2373.05 5135.31 2341.45C5110.42 2291.74 5095.21 2270.14 5061.71 2236.95C5023.68 2199.26 4985.74 2173.38 4938.25 2152.72C4895.94 2134.32 4866.08 2129.01 4811.26 2130.13C4772.93 2130.91 4754.38 2133.39 4726.69 2141.42C4701.96 2148.58 4687.01 2155.45 4651.33 2176.03C4599.12 2206.15 4581.37 2211.91 4540.89 2211.91C4519.07 2211.91 4514.72 2211.51 4501.85 2208.29C4476.4 2201.91 4458.32 2192.15 4440.78 2175.31C4428.08 2163.13 4421.07 2152.92 4413.88 2136.2C4410.15 2127.53 4408.05 2124.52 4403.77 2121.69C4396.52 2116.89 4385.58 2116 4379.67 2119.71ZM985.617 2127.33C981.479 2129.72 979.03 2132.84 974.977 2140.89C972.081 2146.64 968.704 2154.75 967.47 2158.9C964.485 2168.95 964.49 2196.1 967.479 2212.39L969.74 2224.7L975.97 2218.66C989.96 2205.08 1000.08 2189.27 1007.07 2170.05C1015.11 2147.97 1013.92 2133.37 1003.56 2126.97C997.709 2123.35 992.323 2123.46 985.617 2127.33ZM2752.76 2143.53C2750.37 2144.98 2747.01 2148.15 2745.29 2150.57C2732.7 2168.25 2762.43 2219.76 2800.97 2247.03C2818.71 2259.59 2845.39 2271.3 2868.52 2276.67C2880.07 2279.36 2900.92 2281.47 2915.87 2281.47C2962.07 2281.47 2994.8 2270.82 3052.4 2237.05C3083.93 2218.56 3100.91 2211.3 3127.58 2204.92C3164.1 2196.18 3219.47 2195.85 3255.09 2204.15C3288.65 2211.97 3334.13 2235.07 3370.62 2262.84C3383.92 2272.96 3416.74 2305.37 3428.34 2319.82C3443.11 2338.24 3451.4 2351.69 3465.31 2379.75C3477.18 2403.72 3479.48 2409.13 3487.15 2431.29C3491.25 2443.12 3497.38 2466.14 3497.38 2469.69C3497.38 2471.6 3492.67 2474.67 3479.33 2481.45C3429.25 2506.92 3407.74 2524.64 3389.1 2555.8C3380.57 2570.07 3377.59 2579.99 3377.59 2594.13C3377.59 2612.36 3382.16 2623.36 3395.13 2636.41C3402.31 2643.64 3407.93 2647.83 3414.72 2651.04C3423.99 2655.41 3424.76 2655.54 3443.06 2655.54H3461.86L3473.81 2649.59C3483.66 2644.68 3487.96 2641.38 3498.3 2630.78C3530.23 2598.05 3545.73 2563.72 3548.4 2519.79C3549.01 2509.69 3550.01 2503.52 3551.22 2502.3C3553.21 2500.31 3560.92 2497.85 3582.34 2492.35C3609.62 2485.35 3617.44 2484.46 3652.68 2484.38C3687.67 2484.3 3693.51 2484.98 3718.14 2492C3734.85 2496.77 3760.1 2508.04 3771.55 2515.85C3792.68 2530.26 3817.19 2554.61 3851.17 2594.95C3855.37 2599.93 3859.14 2604.31 3859.55 2604.7C3859.97 2605.08 3865.89 2611.97 3872.71 2620.02C3919.82 2675.56 3960.48 2703.61 4011.2 2715.54C4048.25 2724.26 4096.35 2723.94 4130.19 2714.76C4172.31 2703.33 4213.11 2678.05 4253.63 2638.26C4270.16 2622.04 4272.18 2617.9 4269.12 2606.53C4266.49 2596.76 4257.87 2590.77 4246.46 2590.77C4237.03 2590.78 4234.51 2592.37 4215.24 2610.51C4188.87 2635.32 4158.55 2655.88 4135.39 2664.66C4115.98 2672.01 4102.09 2674.53 4076.79 2675.28C4055.99 2675.89 4050.07 2675.57 4036.4 2673.09C4015.12 2669.23 4012.49 2668.54 3999.63 2663.36C3963.38 2648.78 3948.69 2635.79 3885.97 2562.86C3835.66 2504.36 3810.87 2482.39 3775.24 2464.72C3718.24 2436.45 3657.46 2429.96 3584.43 2444.34C3576.19 2445.97 3551.67 2452.43 3546.98 2454.21C3543.85 2455.4 3543.59 2455.02 3541.32 2446.16C3536.57 2427.58 3522.09 2385.39 3519.73 2383.23C3519.31 2382.85 3514.44 2373.45 3508.91 2362.34C3492.13 2328.63 3482.47 2312.73 3467.36 2293.97C3429.96 2247.53 3381.56 2208.55 3330.93 2184.11C3291.58 2165.1 3266.43 2157.71 3228.56 2154.02C3189.64 2150.23 3149.18 2152.7 3113.96 2161.02C3088.59 2167 3063.09 2177.36 3039.8 2191.13C3010.17 2208.64 2979.77 2223.89 2965.32 2228.49C2934.52 2238.3 2894.3 2238.11 2864.72 2228C2846.11 2221.65 2831.77 2213.45 2818.09 2201.38C2805.42 2190.18 2797.05 2177.89 2787.3 2156.2C2784.42 2149.78 2780.32 2145.22 2774.94 2142.45C2770.05 2139.92 2757.68 2140.53 2752.76 2143.53ZM1128.81 2165.05C1123.73 2167.35 1117.38 2174.56 1116.17 2179.41C1112.69 2193.27 1128.64 2225.73 1150.71 2249.68C1170.07 2270.7 1202.56 2289.22 1234.93 2297.69C1261.62 2304.68 1300.15 2306.42 1326.66 2301.84C1345.33 2298.61 1370.07 2290.18 1389.83 2280.3C1407.71 2271.37 1408.35 2271.02 1433.25 2256.52C1463.85 2238.7 1483.89 2231.08 1516.7 2224.8C1534.4 2221.4 1600.12 2221.46 1618.14 2224.88C1656.55 2232.17 1704.53 2255.37 1743.64 2285.56C1760.57 2298.63 1788.22 2325.8 1801.93 2342.84C1825.84 2372.56 1849.12 2417.71 1862.64 2460.54C1867.92 2477.27 1871.87 2493.42 1871.04 2494.91C1870.75 2495.43 1863.2 2499.47 1854.27 2503.88C1833.41 2514.18 1808.32 2529.3 1796.68 2538.58C1779.51 2552.29 1761.19 2577.21 1754.43 2596.08C1748.3 2613.17 1749.71 2631.36 1758.35 2646.84C1762.2 2653.74 1775.11 2666.82 1782.12 2670.93C1797.26 2679.81 1820.31 2682.47 1837.05 2677.26C1860.3 2670.02 1883.97 2647.53 1902.58 2615.02C1915.08 2593.15 1923.44 2561.27 1923.51 2535.09C1923.52 2530.86 1923.99 2526.76 1924.55 2525.99C1925.6 2524.56 1933.46 2521.5 1940.9 2519.64C1943.2 2519.06 1949.92 2517.28 1955.83 2515.67C2009.52 2501.1 2067.12 2503.37 2111.62 2521.81C2148.71 2537.17 2170.34 2554.84 2213.82 2605.28C2260.71 2659.66 2265.88 2665.43 2280.9 2680.01C2297.28 2695.92 2308.6 2704.79 2323.91 2713.75C2365.49 2738.07 2406.69 2747.1 2461.75 2743.94C2505.04 2741.47 2535.62 2730.99 2574.47 2705.32C2602.93 2686.52 2641.06 2651.59 2643.67 2641.94C2645.39 2635.59 2644.11 2627.6 2640.59 2622.58C2637.23 2617.78 2627.4 2613.05 2620.81 2613.05C2612.47 2613.05 2607.57 2616.07 2591.35 2631.17C2562.65 2657.87 2547.76 2668.74 2522.74 2681.27C2507.26 2689.02 2489.26 2694.67 2473.03 2696.87C2456.24 2699.14 2411.52 2697.47 2398.44 2694.08C2352.72 2682.24 2327.5 2664.27 2282.78 2611.66C2277.9 2605.92 2273.56 2600.9 2273.14 2600.52C2272.72 2600.14 2268.94 2595.75 2264.73 2590.77C2233.7 2553.98 2207.81 2527.39 2187.67 2511.62C2121.45 2459.76 2029.34 2446.38 1930.23 2474.23L1918.17 2477.61L1913.73 2461.41C1906.54 2435.18 1897.98 2413.41 1884.41 2386.8C1877.4 2373.06 1870.16 2359.44 1868.32 2356.54C1866.49 2353.63 1864.99 2350.88 1864.99 2350.42C1864.99 2348.95 1850.93 2328.54 1841.54 2316.38C1830.6 2302.22 1799.54 2270.87 1782.13 2256.43C1766.9 2243.78 1736.21 2223.14 1720.14 2214.72C1690.12 2199.01 1657.99 2186.07 1640.05 2182.48C1594.08 2173.28 1537.32 2173.3 1493.8 2182.52C1463.21 2189.01 1437.87 2199.48 1402.82 2220.11C1385.18 2230.49 1359.24 2243.79 1348.02 2248.22C1344.16 2249.74 1335.17 2252.54 1328.05 2254.43C1316.53 2257.5 1312.3 2257.88 1289.75 2257.88C1257.77 2257.88 1243.61 2254.85 1220.52 2243.07C1206.33 2235.82 1197.16 2229.15 1187.08 2218.73C1176.29 2207.57 1173.21 2203.02 1164.89 2185.88C1158.8 2173.33 1156.34 2169.68 1152.28 2167.17C1146.13 2163.37 1134.77 2162.34 1128.81 2165.05ZM0 2226.35V2249.47L3.83026 2250.29C15.2124 2252.73 39.3904 2262.04 57.8021 2271.07C80.0887 2282 101.726 2295.51 120.709 2310.33C136.274 2322.48 165.665 2351.66 178.012 2367.22C199.568 2394.37 223.548 2440.71 236.629 2480.48C240.06 2490.91 246.53 2515.24 246.53 2517.72C246.53 2518.02 237.866 2522.61 227.277 2527.92C186.989 2548.11 166.575 2562.78 150.448 2583.11C134.168 2603.63 125.354 2623.64 125.354 2640.06C125.354 2663.13 139.983 2685.56 162.264 2696.65C171.948 2701.47 172.139 2701.5 190.817 2701.5H209.62L221.897 2695.5C231.734 2690.69 236.444 2687.22 245.575 2678.08C275.73 2647.89 293.028 2611.19 295.92 2571.27C296.391 2564.76 297.102 2556.79 297.497 2553.57L298.216 2547.71L310.03 2544.11C325.516 2539.39 341.074 2535.54 356.168 2532.71C372.007 2529.75 427.984 2529.28 441.525 2532C475.273 2538.78 504.626 2550.77 526.222 2566.59C540.781 2577.26 573.151 2610.01 598.302 2639.52C655.234 2706.32 676.621 2726.19 709.643 2742.99C744.841 2760.89 774.929 2767.68 818.858 2767.64C869.552 2767.59 906.822 2756.2 948.502 2728.03C967.342 2715.3 975.569 2708.68 995.042 2690.6C1014.66 2672.39 1018.15 2667.59 1018.15 2658.89C1018.15 2645.61 1008.63 2636.73 994.397 2636.73C985.725 2636.73 983.06 2638.42 965.922 2654.75C930.302 2688.69 899.628 2707.36 863.55 2717.03C845.442 2721.89 806.501 2723.23 785.928 2719.7C765.796 2716.25 743.009 2708.6 729.053 2700.6C699.456 2683.62 690.673 2674.91 619.065 2591.47C594.699 2563.07 567.753 2538.1 544.722 2522.56C522.563 2507.62 485.853 2493.46 451.971 2486.79C434.328 2483.31 380.165 2482.6 361.135 2485.59C334.758 2489.73 319.7 2493.07 299.107 2499.34C295.468 2500.45 292.21 2500.9 291.87 2500.35C291.529 2499.8 289.938 2494.38 288.334 2488.3C280.96 2460.35 274.594 2443.42 261.41 2416.66C236.22 2365.54 218.711 2340.1 186.638 2308.01C159.354 2280.72 129.601 2257.88 98.194 2240.11C68.4126 2223.27 27.9762 2207.44 6.55462 2204.22L0 2203.24V2226.35ZM5111.66 2506.63C5083.51 2521.74 5070.66 2532.49 5057.97 2551.57C5052.64 2559.6 5051.17 2563.09 5050.68 2568.95C5050.15 2575.32 5050.55 2576.84 5053.75 2580.64C5060.97 2589.22 5072.29 2589.86 5083.27 2582.3C5095.18 2574.1 5113.37 2547.86 5119.41 2530.15C5123.88 2517.04 5126.77 2500.21 5124.54 2500.26C5123.97 2500.27 5118.17 2503.14 5111.66 2506.63ZM3484.41 2530.85C3456.77 2546.36 3443.49 2557.73 3431.73 2575.9C3421.87 2591.15 3423.24 2603.64 3435.36 2609C3445.07 2613.3 3454.4 2609.81 3466.16 2597.49C3483.06 2579.78 3493.28 2560.63 3498.13 2537.56C3501.61 2521.05 3501.75 2521.12 3484.41 2530.85ZM1860.81 2552.93C1842.49 2563.15 1840.27 2564.54 1830.73 2571.67C1820.18 2579.55 1809.6 2592.25 1803.53 2604.34C1800.01 2611.34 1799.31 2614.14 1799.92 2618.75C1801.38 2629.64 1811.54 2635.7 1823.11 2632.58C1836.99 2628.84 1859.81 2599.63 1867.74 2575.45C1870.91 2565.76 1874.74 2546.16 1873.44 2546.26C1873 2546.3 1867.32 2549.3 1860.81 2552.93ZM238.806 2573.57C211.354 2587.68 197.055 2598.63 185.155 2614.68C171.204 2633.5 169.534 2643.58 178.992 2651.88C185.672 2657.75 191.68 2658.61 200.058 2654.9C208.27 2651.27 211.195 2648.66 221.597 2635.67C235.686 2618.08 242.993 2602.29 247.169 2580.42C248.328 2574.34 249.101 2569.2 248.885 2568.98C248.669 2568.77 244.134 2570.83 238.806 2573.57ZM3671.86 2685.43C3662.53 2689.67 3659.25 2696.56 3655.4 2720.08C3648.77 2760.52 3657.26 2810.33 3678.35 2854.71C3695.58 2890.99 3716.92 2920.58 3748.68 2952.24C3783.1 2986.56 3807.45 3002.41 3858.12 3023.51C3908.26 3044.39 3976.75 3058.06 4030.83 3057.99C4077.16 3057.92 4131.47 3048.75 4175.19 3033.6C4199.41 3025.2 4196.82 3024.9 4201.37 3036.72C4207.23 3051.94 4224.45 3087.34 4233.55 3102.89C4268.76 3163.02 4314.31 3209.91 4362.32 3235.43C4398.77 3254.8 4429.23 3263.95 4474.44 3269.09C4482.1 3269.96 4494.95 3271.52 4502.99 3272.54C4511.04 3273.58 4524.2 3275.15 4532.24 3276.06C4583.95 3281.86 4616.44 3293.75 4645.52 3317.52C4660.72 3329.94 4682.17 3356.54 4688.46 3370.76L4690.31 3374.94H4715.72H4741.13L4738.39 3368C4727.51 3340.4 4712.13 3318.1 4687.36 3294.04C4666.85 3274.13 4648.9 3262.06 4624.17 3251.55C4593.03 3238.33 4575.64 3234.8 4497.42 3225.85C4449.85 3220.4 4430.5 3216.1 4404.17 3205.1C4378.32 3194.3 4354.47 3177.66 4330.32 3153.58C4303.87 3127.21 4283.49 3098.69 4264.06 3060.86C4253.93 3041.13 4239.75 3008.3 4239.75 3004.57C4239.75 3003.83 4245.67 2998.45 4252.91 2992.63C4279.56 2971.19 4297.23 2946.76 4308.31 2916C4319.56 2884.77 4319.99 2867.37 4310.04 2846.36C4304.09 2833.79 4297.58 2826.33 4286.75 2819.63C4272.63 2810.89 4265.85 2809.12 4248.5 2809.67C4234.38 2810.11 4232.83 2810.46 4222.57 2815.47C4202.21 2825.42 4188.31 2844.47 4177.68 2877C4170.74 2898.19 4171.52 2928.45 4180.03 2968.84C4182.1 2978.67 4182.28 2981.53 4180.91 2982.41C4174.84 2986.27 4137.05 2998.58 4121.7 3001.69C4085.07 3009.11 4062.25 3011.67 4031.52 3011.82C3998.94 3011.97 3971.25 3008.6 3935.14 3000.08C3866.54 2983.89 3812.87 2954.5 3774.07 2911.89C3715.74 2847.85 3691.86 2780.38 3704.38 2715.03L3706.7 2702.89L3703.07 2695.73C3697.04 2683.84 3684.49 2679.7 3671.86 2685.43ZM2046.58 2708.3C2041.44 2710.63 2035.89 2717.63 2033.66 2724.61C2030.68 2733.93 2027.95 2756.89 2027.95 2772.66C2027.95 2822.71 2044.57 2871.85 2078.56 2922.27C2102.25 2957.4 2135.91 2991.6 2168.62 3013.75C2177.64 3019.85 2200.98 3033.17 2204.78 3034.37C2206.56 3034.94 2213.41 3037.92 2220.01 3041C2256.92 3058.24 2298.74 3069.79 2353.17 3077.78C2376.84 3081.25 2434.22 3081.23 2457.63 3077.74C2506.19 3070.5 2530.64 3064.61 2561.71 3052.67C2572.7 3048.45 2570.48 3046.31 2580.81 3071.08C2602 3121.85 2632.91 3169.39 2667.74 3204.77C2698.33 3235.83 2723.68 3253.83 2757.79 3268.72C2789.93 3282.74 2807.41 3286.99 2859.46 3293.48C2924.4 3301.57 2939.27 3303.6 2946.52 3305.38C2989.19 3315.81 3018.15 3333.58 3044.05 3365.24L3051.99 3374.94H3079.07H3106.16L3101.86 3366.93C3099.49 3362.53 3093.35 3353.29 3088.2 3346.4C3056 3303.3 3015.51 3275.84 2965.32 3263.03C2945.82 3258.06 2930.33 3255.59 2890.11 3251.02C2839.63 3245.28 2820.49 3242.09 2801.3 3236.2C2754.9 3221.96 2716.93 3194.75 2681 3149.97C2655.27 3117.9 2630.38 3073.1 2616.84 3034.51L2613.95 3026.27L2617.96 3023.37C2645.48 3003.4 2663.11 2983.01 2675.69 2956.58C2688.78 2929.09 2693.78 2906.83 2691 2888.35C2686.14 2856 2658.07 2831.76 2625.47 2831.76C2591.67 2831.76 2568.04 2853.61 2552.81 2898.93C2545.27 2921.4 2545.78 2949.5 2554.51 2991.91C2555.85 2998.42 2556.69 3004.18 2556.36 3004.7C2555.45 3006.19 2534.25 3014.09 2519.62 3018.4C2485.99 3028.3 2439.53 3035.25 2405.47 3035.47C2385.97 3035.59 2346.48 3031.13 2322.53 3026.1C2297.57 3020.85 2264.13 3010.66 2248.02 3003.39C2233.64 2996.91 2218.08 2989.16 2211.11 2985C2207.28 2982.72 2202.26 2979.8 2199.96 2978.51C2186.17 2970.77 2155.26 2943.15 2138.37 2923.46C2123.78 2906.47 2105.11 2877.14 2095 2855.35C2076.39 2815.23 2071.82 2779.62 2079.65 2735.86C2081.43 2725.94 2081.38 2725.47 2078.04 2719.25C2076.15 2715.72 2072.89 2711.58 2070.8 2710.05C2065.94 2706.48 2052.7 2705.53 2046.58 2708.3ZM422.025 2730.22C416.181 2732.54 409.66 2739.95 407.552 2746.66C397.584 2778.42 399.85 2828.32 413.03 2867.25C429.447 2915.74 455.972 2957.5 495.836 2997.61C517.655 3019.56 531.115 3030.22 555.04 3044.48C586.875 3063.46 636.032 3082.82 672.733 3090.83C714.394 3099.92 747.159 3103.96 779.284 3103.99C827.527 3104.02 885.417 3094.19 926.945 3078.91C934.593 3076.1 941.984 3073.71 943.368 3073.59C945.257 3073.44 946.838 3075.82 949.707 3083.14C955.516 3097.96 959.441 3106.47 969.928 3127.02C1008.37 3202.32 1062.71 3259.42 1122.84 3287.71C1156.84 3303.7 1179.86 3310.03 1222.2 3315.05C1229.1 3315.87 1241.94 3317.45 1250.75 3318.56C1259.56 3319.67 1274.92 3321.58 1284.88 3322.79C1339.01 3329.39 1370.97 3342.32 1400.53 3369.57L1406.43 3375L1436.62 3374.62L1466.81 3374.25L1460.4 3365.89C1456.87 3361.29 1447.9 3351.37 1440.47 3343.83C1420.83 3323.93 1403.16 3311.27 1380.29 3300.73C1346.33 3285.08 1328.92 3281.33 1245.88 3271.8C1211.41 3267.84 1195.02 3265.04 1179.02 3260.39C1121.18 3243.55 1071.2 3202.15 1030.39 3137.26C1015.67 3113.86 995.017 3070.75 989.662 3052.26C988.925 3049.71 990.515 3047.91 999.656 3040.96C1021.79 3024.1 1040.5 3001.17 1051.58 2977.28C1072.21 2932.84 1070.8 2897.69 1047.48 2874.87C1026.51 2854.35 995.782 2849.03 970.47 2861.54C960.742 2866.35 949.342 2875.97 943.672 2884.15C938.982 2890.92 929.965 2910.77 926.149 2922.72C922.312 2934.73 922.065 2936.89 922.071 2958.48C922.078 2980.56 923.03 2989.03 928.953 3019.61C929.752 3023.73 930.405 3027.33 930.405 3027.6C930.405 3028.47 920.26 3032.42 903.942 3037.9C842.839 3058.39 772.323 3063.35 709.643 3051.57C650.018 3040.36 596.263 3018.72 559.728 2991.21C545.802 2980.73 513.474 2948.02 502.603 2933.41C477.66 2899.89 462.219 2867.63 453.946 2831.73C449.847 2813.94 449.515 2780.79 453.27 2763.95C456.343 2750.16 455.511 2744.34 449.486 2737.48C442.401 2729.41 431.402 2726.5 422.025 2730.22ZM4243.18 2856.8C4232.8 2861.94 4221.79 2885.72 4220.59 2905.55C4219.94 2916.27 4223.41 2949.94 4225.55 2953.77C4226.51 2955.48 4228.6 2953.92 4235.96 2945.97C4248.57 2932.35 4254.49 2922.98 4261.9 2904.93C4267.23 2891.97 4268.31 2887.75 4268.75 2878.25C4269.26 2867.23 4269.16 2866.84 4264.84 2861.91C4262.31 2859.04 4258.22 2856.26 4255.31 2855.45C4248.83 2853.65 4249.75 2853.55 4243.18 2856.8ZM2616.19 2880.39C2610.99 2883.56 2603.43 2896.6 2598.95 2910.12C2596.04 2918.9 2595.87 2921.22 2596.62 2942.85C2597.07 2955.66 2598.26 2968.88 2599.27 2972.22L2601.11 2978.29L2612.24 2966.63C2629.9 2948.14 2643.58 2918.52 2643.58 2898.79C2643.58 2890.11 2643.41 2889.7 2637.49 2883.78C2632.4 2878.68 2630.53 2877.7 2626 2877.7C2623.03 2877.7 2618.61 2878.91 2616.19 2880.39ZM4388.09 2894.48C4382.52 2896.29 4380.09 2898.29 4375.73 2904.73C4369.27 2914.25 4371.57 2925.82 4384.65 2949.51C4407.29 2990.53 4450 3019.28 4505.78 3031.05C4517.82 3033.59 4524.97 3034.14 4546.17 3034.16C4571.74 3034.19 4580.89 3033.09 4602.58 3027.42C4620.09 3022.84 4653.52 3007.92 4674.31 2995.4C4711.29 2973.12 4736.52 2962.33 4763.45 2957.26C4767.67 2956.46 4774.87 2955.09 4779.47 2954.21C4784.07 2953.33 4800.36 2952.29 4815.68 2951.91C4856.25 2950.9 4882.29 2954.94 4915.54 2967.41C4933.02 2973.97 4974.5 2996 4987.68 3005.73C5024.37 3032.8 5058.39 3067.83 5076.71 3097.41C5092.62 3123.1 5107.4 3154.02 5117.29 3182.32C5121.36 3193.99 5128.41 3221.13 5128.33 3224.85C5128.31 3225.82 5124.08 3228.48 5118.93 3230.77C5089.05 3244.07 5058.48 3263.52 5043.05 3279.04C5030.84 3291.32 5018.46 3309.4 5012.43 3323.76C5008.59 3332.91 5008.39 3334.33 5008.9 3348.98C5009.28 3359.64 5010.19 3366.13 5011.82 3369.72L5014.2 3374.94H5076.04H5137.87L5145.66 3364.59C5166.81 3336.49 5178.42 3302.13 5178.49 3267.4L5178.51 3255.26L5185.83 3253.02C5217.16 3243.42 5238.16 3239.19 5265.91 3236.88C5317.98 3232.56 5371.5 3246.52 5409.72 3274.39C5427.5 3287.36 5462.05 3323.53 5497.98 3366.78L5504.75 3374.94H5536.08H5567.41L5556.32 3362.76C5550.22 3356.05 5537.15 3341.13 5527.27 3329.59C5481.29 3275.89 5462.51 3256.66 5438.04 3238.23C5416.04 3221.66 5380.48 3205.13 5352.98 3198.7C5324.37 3192.01 5322.42 3191.82 5283.67 3191.89C5251.12 3191.95 5243.91 3192.37 5230.05 3194.98C5212.9 3198.22 5181.46 3205.96 5175.7 3208.37C5174.02 3209.06 5173.04 3207.12 5171.04 3199.12C5168.47 3188.81 5161.68 3166.51 5159.24 3160.36C5146.14 3127.23 5135.72 3105.46 5121.64 3081.73C5078.2 3008.54 4996.53 2944.3 4912.48 2917.22C4871.79 2904.1 4803.92 2901.74 4755.96 2911.77C4719.74 2919.34 4696.12 2928.95 4656.9 2952.09C4618.11 2974.97 4595.09 2984.19 4568.01 2987.71C4528.98 2992.78 4489.93 2984.06 4459.82 2963.55C4443.92 2952.72 4426.62 2931.17 4419.98 2913.91C4415.07 2901.14 4408.25 2894.8 4398.3 2893.76C4394.98 2893.41 4390.38 2893.74 4388.09 2894.48ZM988.528 2905.46C983.43 2909.93 978.221 2919.62 973.712 2933.02C971.399 2939.89 970.797 2945.12 970.797 2958.34C970.797 2974.78 972.84 2995.01 974.868 2998.63C975.612 2999.96 978.921 2997.26 986.37 2989.24C998.879 2975.78 1010.83 2953.51 1015.6 2934.8C1019.44 2919.72 1018.55 2913.98 1011.24 2906.67C1006.65 2902.08 1005.1 2901.37 999.562 2901.37C994.489 2901.37 992.224 2902.21 988.528 2905.46ZM2758.87 2919.55C2751.6 2923.39 2746.65 2931.16 2746.65 2938.72C2746.65 2953.41 2762.44 2982.21 2781.41 3002.12C2795.97 3017.4 2806.06 3024.87 2825.34 3034.62C2858.01 3051.16 2885.19 3057.73 2921.44 3057.87C2956.5 3058.01 2984.98 3051.02 3020.44 3033.58C3034.16 3026.83 3077.6 3002.81 3083.01 2998.98C3087.6 2995.74 3114.33 2986.08 3127.34 2982.96C3154.98 2976.34 3158.62 2975.98 3197.22 2975.93C3239.6 2975.89 3251.16 2977.33 3277.31 2985.91C3296.45 2992.19 3336.12 3011.58 3354.61 3023.71C3385.2 3043.76 3421.3 3078.15 3442.56 3107.52C3460.56 3132.39 3483.05 3177.97 3493.75 3211.28C3497.81 3223.95 3502.9 3243.65 3502.93 3246.87C3502.94 3248.21 3498.59 3251.12 3491.46 3254.53C3474.55 3262.63 3449.41 3276.76 3438.97 3284.05C3415.83 3300.19 3392.86 3328.72 3385.49 3350.47C3384.21 3354.24 3383.17 3361.29 3383.17 3366.14V3374.94H3406.84H3430.52V3368.99C3430.52 3356.77 3451.01 3330.73 3470.22 3318.53C3480.66 3311.9 3502.94 3299.73 3504.63 3299.73C3506.44 3299.73 3504.64 3311.04 3500.74 3324.1C3495.75 3340.86 3486.67 3357.15 3475.33 3369.69L3470.54 3375L3500.32 3374.62L3530.11 3374.25L3535.25 3364.5C3545.51 3345.06 3551.88 3320.04 3553.89 3291.3L3554.82 3278L3565.45 3274.75C3579.49 3270.45 3601.11 3265.23 3615.77 3262.6C3633.27 3259.46 3683.53 3259.43 3699.9 3262.56C3733.34 3268.93 3762.28 3280.95 3784.68 3297.76C3800.09 3309.32 3822.99 3331.92 3843.48 3355.79L3859.92 3374.94H3890.6H3921.28L3918.46 3371.81C3916.91 3370.08 3911.07 3363.35 3905.49 3356.84C3862.9 3307.14 3861.96 3306.1 3843.58 3288.1C3829.31 3274.13 3813.44 3261.11 3799.56 3251.99C3784.33 3241.98 3755.08 3229.25 3734.16 3223.53C3719.87 3219.62 3716.77 3218.99 3697.25 3216.02C3680.73 3213.51 3673.81 3213.17 3651.98 3213.8C3637.81 3214.21 3622.77 3215.15 3618.55 3215.9C3614.34 3216.66 3606.19 3218.02 3600.45 3218.93C3594.7 3219.85 3581.85 3222.78 3571.89 3225.45C3561.93 3228.13 3552.53 3230.62 3550.99 3230.99C3548.53 3231.59 3547.87 3230.43 3545.65 3221.48C3536.1 3183.19 3520.66 3146.66 3496.31 3104.73C3452.69 3029.64 3362.29 2960.57 3277.31 2937.42C3234.14 2925.66 3168.76 2925.52 3120.62 2937.07C3088.94 2944.68 3072.28 2951.8 3030.78 2975.47C2991.57 2997.83 2976.82 3004.21 2952.76 3009.23C2939.22 3012.06 2904.39 3012.15 2890.11 3009.4C2860.45 3003.69 2836.3 2991.08 2817.52 2971.5C2807.48 2961.04 2802.19 2953.07 2795.24 2937.96C2792.16 2931.25 2788.59 2924.61 2787.32 2923.2C2781.35 2916.6 2767.76 2914.86 2758.87 2919.55ZM1134.29 2941.57C1120.34 2948.08 1117.05 2960.75 1124.64 2978.7C1146.31 3029.9 1190.38 3063.53 1253.55 3077.04C1274.21 3081.46 1317.24 3081.5 1337.43 3077.11C1365.29 3071.05 1391.89 3059.91 1426.25 3039.91C1470.37 3014.22 1489.43 3006.85 1527.87 3000.64C1557.14 2995.91 1612.52 2997.89 1637.26 3004.54C1659.36 3010.48 1689.79 3023.82 1711.94 3037.27C1716.26 3039.9 1720.23 3042.05 1720.74 3042.05C1722.44 3042.05 1737.88 3053.02 1752.48 3064.59C1786.44 3091.52 1815.95 3125.6 1833.67 3158.35C1836.57 3163.72 1840.39 3170.74 1842.15 3173.96C1855.29 3197.93 1873.5 3248.17 1875.36 3265.6L1876.11 3272.57L1854.18 3283.37C1814.19 3303.06 1791.24 3320.73 1774.96 3344.37C1767.62 3355.02 1759.13 3370.57 1759.13 3373.37C1759.13 3374.48 1766.82 3374.94 1785.28 3374.94H1811.43L1817.52 3366.58C1824.72 3356.7 1833.72 3348.86 1848.97 3339.2C1859.19 3332.72 1876.42 3323.41 1878.18 3323.41C1882.3 3323.41 1871.49 3360.28 1864.03 3371.67L1861.88 3374.94H1889.14H1916.39L1917.74 3370.42C1924.99 3346.13 1926.84 3336.4 1928.5 3314L1929.46 3301.12L1940.37 3297.67C1951.83 3294.05 1966.38 3290.41 1986.16 3286.23C1995.75 3284.2 2004.63 3283.72 2032.82 3283.72C2071.35 3283.71 2076.77 3284.46 2104.55 3293.7C2142.74 3306.39 2166.9 3323.38 2202.73 3362.76L2213.81 3374.94H2244.96H2276.11L2267.98 3365.56C2202.21 3289.65 2174.26 3267.87 2119.88 3250.14C2087.83 3239.7 2073.97 3237.74 2032.13 3237.78C1989.41 3237.81 1970.03 3240.62 1929.09 3252.72L1922.84 3254.57L1920.42 3245.01C1907.74 3195.09 1879.9 3135.82 1851.92 3099.16C1803.55 3035.8 1729.3 2983.32 1658.85 2962.69C1640.75 2957.39 1640.15 2957.27 1617.17 2954.24C1583.43 2949.81 1540.85 2950.97 1506.34 2957.28C1477.43 2962.57 1448.15 2973.79 1416.75 2991.63C1360.24 3023.72 1345.24 3029.97 1316.02 3033.64C1270.37 3039.36 1228.29 3027.52 1197.45 3000.28C1187.93 2991.87 1179.01 2979.73 1172.62 2966.49C1169.57 2960.17 1166.32 2953.49 1165.39 2951.65C1160.22 2941.4 1145.14 2936.51 1134.29 2941.57ZM0 3001.63V3025.11L6.70783 3026.55C37.5185 3033.15 85.3354 3056.38 117.693 3080.45C145.64 3101.24 181.839 3138.55 196.651 3161.84C219.414 3197.62 238.43 3240.07 247.19 3274.66C248.45 3279.64 250.115 3286.12 250.888 3289.07C251.661 3292.02 252.094 3294.61 251.849 3294.84C251.605 3295.07 243.482 3299.1 233.799 3303.79C190.902 3324.6 167.598 3342.21 149.791 3367.28L144.845 3374.25L174.111 3374.62L203.376 3375L215.552 3366.83C226.79 3359.29 250.65 3345.69 252.637 3345.69C254.155 3345.69 253.549 3354.74 251.556 3361.81C250.492 3365.58 249.297 3370.08 248.902 3371.81L248.183 3374.94H272.373H296.564L297.909 3369.72C299.084 3365.17 301.602 3343.37 302.605 3329.08C302.926 3324.49 303.29 3324.2 312.689 3321.11C326.985 3316.4 351.119 3310.64 367.705 3307.98C383.773 3305.4 432.723 3305.68 447.096 3308.44C494.886 3317.59 528.862 3335.39 560.558 3367.86L567.471 3374.94H598.684H629.895L621.862 3365.54C607.654 3348.92 576.312 3318.84 561.995 3308.09C545.722 3295.87 514.858 3279.83 496.541 3274.07C476.744 3267.85 476.177 3267.69 465.899 3265.61C439.859 3260.33 424.432 3258.97 399.74 3259.77C386.334 3260.21 371.918 3261.17 367.705 3261.9C363.492 3262.64 355.344 3263.99 349.598 3264.9C343.853 3265.82 330.691 3268.78 320.349 3271.48C293.658 3278.44 295.278 3278.21 295.278 3274.99C295.278 3272.13 285.937 3239.45 282.201 3229.24C271.625 3200.34 251.573 3160.48 234.626 3134.68C227.619 3124.01 207.636 3099.89 194.802 3086.61C154.719 3045.13 100.69 3009.9 47.271 2990.4C35.2161 2986 13.8558 2980.17 5.22308 2978.91L0 2978.16V3001.63ZM5117.79 3282.5C5088.86 3297.6 5072.32 3311.63 5061.17 3330.52C5056.79 3337.94 5055.94 3340.63 5055.94 3347.26C5055.94 3354.49 5056.34 3355.5 5060.66 3359.29C5063.25 3361.57 5067.62 3363.85 5070.37 3364.37C5086.88 3367.47 5114.59 3337.08 5125.47 3303.94C5128.4 3295 5131.75 3277.57 5130.73 3276.55C5130.44 3276.26 5124.61 3278.93 5117.79 3282.5ZM4241.84 3368.52C4239.54 3369.52 4236.8 3371.37 4235.75 3372.64C4233.99 3374.76 4235.23 3374.94 4251.5 3374.94C4270.29 3374.94 4271.59 3374.25 4262 3369.35C4255.8 3366.19 4247.92 3365.86 4241.84 3368.52Z" fill="#F3F3F3"/>
</g>
<defs>
<clipPath id="clip0_2438_46">
<rect width="5705" height="3375" fill="white"/>
</clipPath>
</defs>
</svg>
